<svg id="Calque_4" data-name="Calque 4" xmlns="http://www.w3.org/2000/svg" viewBox="0 0 498.3 614.98"><defs><style>.cls-1{fill:#fffffd;}</style></defs><path class="cls-1" d="M377.11,581.19c-9.29,15.19-22.81,12.6-30.28,2-.86.7-1.71,1.38-2.54,2.07-5.26,4.41-10.67,4.39-16.41.54a19.35,19.35,0,0,1-7.79-10.57,52.28,52.28,0,0,1-2.71-16.13,169.74,169.74,0,0,1,3.39-36.14,36.71,36.71,0,0,1,7.7-16c6.15-7.55,14.72-12,21-19.27a51.25,51.25,0,0,1,12.9-10.75c4.07-2.38,6-6.18,8.07-9.91a4.72,4.72,0,0,0-.57-6,49.37,49.37,0,0,0-6.88-6.45c-3.32-2.48-6.95-4.54-10.45-6.79a20.16,20.16,0,0,1-3.72-2.5c-4.72-4.84-10.92-6.74-17-8.95a2.73,2.73,0,0,0-3.73,1.32c-1.35,2.1-2.56,4.28-3.85,6.42-3,5-5.92,10-9,14.93-4.55,7.15-9.08,14.33-13.92,21.3-7.29,10.51-15,20.72-22.22,31.3-7,10.3-13.58,20.89-20.26,31.41-3,4.76-6,9.57-8.7,14.52a47.34,47.34,0,0,0-1.71,44.08,35.69,35.69,0,0,0,2.56,4.86c6.26,9.29,9.24,19.8,11.4,30.6,2,9.93,1.24,19.76-.77,29.65a220,220,0,0,1-9.33,31.5c-3.83,10.47-9.51,19.81-19.09,26.15a30,30,0,0,1-6.68,3.27c-6.23,2.15-11.62-.14-14.47-6.15a83.91,83.91,0,0,1-2.83-7.93c-2.19,2.13-4,4-5.94,5.74-3.43,3-7.19,5.31-12,5.28-5.72,0-9.37-2.43-11.43-7.86-1-2.59-1.81-5.24-3-8.57a48.12,48.12,0,0,1-4.4,4,38.41,38.41,0,0,1-5.93,3.49c-8.06,3.69-17.31-4.53-17-12A140,140,0,0,1,151.7,681c1.7-8.44,3.4-16.88,4.78-25.37a128,128,0,0,0,2.07-18.47,46.65,46.65,0,0,0-7.93-26.86c-4-5.94-8.45-11.52-13-17.06-4.32-5.34-8.11-11-10.41-17.46a29.49,29.49,0,0,1-1.61-8.1,71.08,71.08,0,0,1,3-26.75c.94-2.89.43-5-1.58-7.62-9.48-12.44-15.48-26.31-15.46-42.3,0-5.83,0-11.63,1.8-17.28a8.6,8.6,0,0,0-.64-6.78c-5-9.92-9.86-19.95-15-29.84-3-5.75-6.49-11.22-9.46-17-7.31-14.21-18-26.36-24.84-40.82-5.5-11.58-10.26-23.51-12.36-36.2-1.79-10.8-3.4-21.74-2.28-32.74,1.06-10.38,2.34-20.77,6.43-30.56,2.62-6.28,5-12.65,7.72-18.89a54.94,54.94,0,0,1,3.8-7.25c6-9.52,12.21-18.8,19.65-27.34a80.43,80.43,0,0,1,21.24-17.07A98.84,98.84,0,0,1,137,198.17c8-1.57,16-2.9,24-4,4.75-.67,9.62-.52,14.38-1.15,7.88-1,15.92-.49,23.71-2.6,3.17-.86,6.56-.94,9.86-1.27a2.79,2.79,0,0,0,2.86-2.25c.2-.79.71-1.51.93-2.31,2.46-8.84,7.5-16.32,12.89-23.5,5.19-6.91,10.94-13.41,18.07-18.47,4.45-3.15,9.68-4.4,14.87-5.44,13.76-2.77,26.79-.72,38.74,6.82,4.77,3,9.93,5.75,13.78,9.72,4.23,4.34,7.17,9.93,10.61,15,.81,1.2,1.4,2.56,2.29,4.23,3.19-3.2,6.18-6.06,9-9.06a214,214,0,0,1,36.69-31.4c13.16-8.73,27.26-15.79,43.39-17.39,2.07-.2,4.13-.56,6.18-.94,9.17-1.71,18.11.09,26.9,2.2,11.71,2.81,20.33,10.76,27.29,20.84a97.11,97.11,0,0,1,6.47,11.24c4.43,8.71,11,16,16.83,23.75,6.07,8.13,14.1,13.49,23.11,17.69a109.15,109.15,0,0,1,10.69,5.4,87.25,87.25,0,0,1,9.19,6.77c2.94,2.36,4.44,5.76,6,9.08,2,4.28.91,8.11-1.88,11.58a18.81,18.81,0,0,1-8.47,6c-1.54.55-3.1,1-4.94,1.65,2.43,2.91,4.66,5.55,6.85,8.22.74.9,1.35,1.9,2.08,2.8,6.45,8-.78,18.33-9.62,18.6a43.83,43.83,0,0,1-15-2c.14,3.18.38,6.09.37,9,0,5.29-2.35,9.69-6,13.31s-9.45,5.16-14.59,1.7c-1.64-1.11-3.06-2.55-4.62-3.77-.88-.68-1.86-1.23-2.8-1.84a17.88,17.88,0,0,0-.94,3.11c-.64,5.37-2.6,10.1-6.9,13.78a15,15,0,0,1-20.25-1c-5.86-5.79-8-13.24-9.77-21.07s-1.17-15.9-2.95-23.66c-3.39-14.77-10.68-26.72-24.88-33.64-6.91-3.38-14.08-3.61-21.41-2.67a60.31,60.31,0,0,0-8.2,2.05,28.79,28.79,0,0,0-17.34,13.41A58.32,58.32,0,0,0,366,250.8a64.71,64.71,0,0,0,4.71,31.62c2.95,7.3,7.78,13.52,13,19.39,6.47,7.28,14.25,12.95,22.45,18.09,14.93,9.35,29.72,18.94,44.81,28a123.92,123.92,0,0,1,26.54,21.72c10.11,10.79,18.43,22.76,23.31,36.81,2.17,6.24,4,12.66,4.37,19.38.2,3.64.9,7.27.87,10.89a70.39,70.39,0,0,1-8.82,34.32A134.68,134.68,0,0,1,476,499.51c-8.94,9.19-17.94,18.33-26.64,27.74S432,546.26,423.61,556c-4.55,5.32-7.53,11.74-10.05,18.28a37.22,37.22,0,0,1-9.11,13.81,13.85,13.85,0,0,1-17.37,1.54C383.61,587.28,380.61,584.2,377.11,581.19ZM268.49,511.94l.88.37c5.35-7.61,10.73-15.2,16.05-22.83s10.89-15.49,16.14-23.37c6.73-10.1,13.66-20.07,19.32-30.84,1.54-2.92,3.5-5.67,6.76-7.11a4.87,4.87,0,0,1,4.28-.32c5.29,2.42,10.86,4.36,15.8,7.35,7.39,4.46,14.32,9.68,21.47,14.53a25.18,25.18,0,0,1,7.93,8.84c2.09,3.82,2.67,7.85.28,11.84s-4.56,7.66-7.9,10.82c-8.81,8.37-18.53,15.63-27.95,23.25-7.83,6.34-13.41,13.69-14.32,24.07-.34,3.78-1.5,7.52-1.6,11.3-.23,8.93-2.58,17.86-.25,26.78,1.09,4.13,1.71,8.53,5.1,11.7s8.66,4.35,11.15-2.75a50.82,50.82,0,0,0,1.85-7.21c.61-3.15,1.94-4.67,4.25-4.49s3.43,1.82,3.56,5.1c0,.83,0,1.67,0,2.5A13.28,13.28,0,0,0,356.11,582c3.46,3.13,7.25,3,10.67-.07,2.73-2.49,3.62-5.89,4.65-9.21.34-1.1.35-2.31.74-3.39.59-1.59,1.46-3.12,3.35-3.34,2.1-.25,3.41,1,4.3,2.77s1.64,3.27,2.42,4.93c1.82,3.89,4.9,6.61,8.2,9.21,4.52,3.57,9.75,1.81,12.45-2.45a44,44,0,0,0,3.67-7.08c3.92-9.81,8.76-19,16.12-26.74,8.68-9.16,16.83-18.83,25.43-28.08,8.28-8.88,16.78-17.55,25.28-26.22a115.61,115.61,0,0,0,16.22-21.4c9.63-15.88,11.88-32.86,8-50.86a94.35,94.35,0,0,0-6.8-19.75,77.27,77.27,0,0,0-13.19-20.44c-6.65-7.17-13.21-14.52-21.58-19.93-8.1-5.23-15.73-11.19-24-16.16-12.11-7.29-24.22-14.55-35.95-22.45a86.77,86.77,0,0,1-17.06-14.49c-7.3-8.29-13.51-17.25-16.83-28a79.38,79.38,0,0,1-3-17.11,67.83,67.83,0,0,1,1.1-17.73,57.42,57.42,0,0,1,6.76-18.15c4.34-7.68,10.19-14.05,18.57-17.41a72.9,72.9,0,0,1,12.42-3.57c17-3.49,30.82,2.63,42.1,14.84a47.37,47.37,0,0,1,11.93,23.8c1.6,8.81,2.8,17.68,4,26.55a33.17,33.17,0,0,0,6.3,16.06c4.16,5.44,10.92,5.18,14.52-.6a16.37,16.37,0,0,0,2.41-6.45c.45-3.73,1.49-7.51.17-11.33a5.53,5.53,0,0,1,.08-3c.71-2.66,3.31-3.46,5.4-1.59,1.22,1.1,2.08,2.59,3.27,3.74,3.12,3,6.17,6.15,9.53,8.88a4.74,4.74,0,0,0,5.9.14,12.25,12.25,0,0,0,2.77-3.33c3-5,2.47-10.2.43-15.35-.79-2-2-3.86-2.8-5.85-1.36-3.32.95-5.37,5.4-4.07a9.35,9.35,0,0,1,1.41.55c2,1,3.93,2.16,6,3.11,4.23,2,8.46,3.62,13.4,2.52,4.19-.94,6.55-5.36,3.66-9.17-2.71-3.57-5.21-7.34-9.09-9.84-2.37-1.52-4.79-3-7-4.68-2-1.46-1.86-3.26.32-4.26a24.56,24.56,0,0,1,5.68-1.46c2.92-.56,6.12-.41,8.76-1.56,7.33-3.17,9.61-7.54,3.83-14.11a34.69,34.69,0,0,0-10.52-8.28c-4.16-2.1-8.27-4.31-12.48-6.31a50.63,50.63,0,0,1-16.8-12.3c-5.44-6.25-10.58-12.79-15.61-19.39a66.4,66.4,0,0,1-7.56-11.68,59.08,59.08,0,0,0-7.55-12.26c-6-7.33-12.74-13.71-22.42-15.73-5.18-1.08-10.43-2-15.69-2.52-2.59-.28-5.28.27-7.91.59s-5.23,1-7.87,1.18c-6.73.55-13,2.79-19.12,5.35-17.94,7.49-32.73,19.58-46.74,32.69-5.7,5.33-10.65,11.47-16.46,16.67-2.59,2.33-3,4-2,7.12a99.78,99.78,0,0,1,4.68,28.88,130.66,130.66,0,0,1-1.88,20.8c-1,6.49-2.49,12.75-5.57,18.49s-6.37,11.3-10,16.67c-5.43,8.08-11.77,15.17-21.27,18.9a36.56,36.56,0,0,1-9.18,1.91,67.84,67.84,0,0,1-24.27-1.1A48,48,0,0,1,234.36,272c-7.87-9.32-14.48-19.47-18.6-31.08s-6.84-23.27-6.27-35.61c.09-2,.09-4,.06-6,0-1.27-.17-2.53-.26-3.84-2.54.22-4.79.06-6.83.64-9,2.57-18.38,2.85-27.6,3.42-8.65.53-17.12,1.71-25.66,3a112.71,112.71,0,0,0-27.32,7.33c-7.09,2.94-13.9,6.23-20,11.07a99.31,99.31,0,0,0-13.79,13.64c-7.68,9.06-14.5,18.73-19.45,29.46-4.24,9.18-7.24,18.93-10.75,28.43a11.71,11.71,0,0,0-.4,2.45c-.91,6.4-2,12.77-2.65,19.19a50.55,50.55,0,0,0,.21,9.6c.22,2.5.51,5,.89,7.48,1.24,8.12,2,16.36,4.92,24.11,1.25,3.26,2.34,6.58,3.66,9.81a109,109,0,0,0,5.38,12.32c4,7.1,8.08,14.16,12.68,20.85,8.23,12,15,24.73,21.83,37.48,6,11.15,11.48,22.53,17.46,33.67a60.64,60.64,0,0,0,7.17,10.15c1.42,1.68,3.55,3.45,6.1,2.33,2.27-1,2.46-3.34,2.54-5.56q.49-13.44,1-26.89a13.68,13.68,0,0,1,.38-3.45c1-3.23,3.56-4.05,6.1-1.89a21.26,21.26,0,0,1,3.3,3.71c2.26,3.08,4.35,6.28,6.62,9.36,2.75,3.75,5.59,7.43,9.4,10.2,4.39,3.2,9.1,2,11.67-2.72a12.86,12.86,0,0,0,1.23-8.71c-.54-2.94-1.34-5.83-2.11-8.71-1.12-4.17-2.38-8.31-3.46-12.48a3.19,3.19,0,0,1,1.53-3.86c1.43-.85,2.9-1.08,4.18,0a27.6,27.6,0,0,1,4.59,4.51c2,2.67,3.59,5.6,5.35,8.42,3,4.7,6.39,9,11.3,11.72,3.52,2,5.31,1.4,7.56-1.93,2.72-4,2.65-8.5,1.95-13-.57-3.6-1.61-7.12-2.18-10.72a63.65,63.65,0,0,1-.53-7.94,2.61,2.61,0,0,1,2.19-2.91,3.07,3.07,0,0,1,3.44,1.44c.34.56.61,1.18,1,1.75,3.7,6.11,7.23,12.33,11.19,18.28a21.42,21.42,0,0,0,6.07,5.73c3.14,2.06,6.19,1.13,7.86-2.19a13.31,13.31,0,0,0,1.25-5.25c.28-6.68-.86-13.17-2.24-19.72a45,45,0,0,0-6.87-16.41c-4.05-5.92-8.35-11.69-12.73-17.38A125.91,125.91,0,0,0,207,374c-5.45-5.56-11.09-10.94-16.65-16.39-2.25-2.21-4.68-4.26-6.78-6.61-3.32-3.72-6.42-7.63-9.61-11.45-5.57-6.67-10.47-13.73-13.44-22-3.37-9.37-4.29-18.73-.84-28.27a26.4,26.4,0,0,1,11.65-14.45c8.21-4.79,15.85-3.7,20.69,3.44,7.17,10.58,11,22.28,10.28,35.23-.21,3.64-.53,7.28-1,10.9-.45,3.79-.89,7.59-1.71,11.3-1.07,4.85-2.45,9.63-3.81,14.41-.44,1.58-.46,2.88.78,4.11,3.75,3.75,7.42,7.58,11.2,11.3A241.8,241.8,0,0,1,230.47,392c10.09,13.31,14.63,28.12,14.84,44.52a8,8,0,0,0,2.48,6.17,76.74,76.74,0,0,1,17.49,25.83,67.38,67.38,0,0,1,5.12,23.22A84.45,84.45,0,0,1,268.49,511.94ZM135.58,543c-1.17,5.65-2.41,9.95-2.89,14.34-.75,6.83-.34,13.53,3,19.9a80.34,80.34,0,0,0,9.69,13.85c4.87,5.89,9.82,11.73,13.51,18.46,6.92,12.65,7.74,26.38,6.25,40.26-.87,8-3.05,15.93-4.44,23.92-1.49,8.65-2.81,17.32-4.1,26-.59,4,.87,7.58,3.54,8.62,3.35,1.32,6.24.06,8.58-2.36,2.89-3,5.65-6.05,8.36-9.18,1.17-1.34,2.33-2.42,4.23-1.94,2.09.52,2,2.29,2.26,4,.71,4.91,1,9.91,2.95,14.59,1.27,3.07,2,3.81,5.2,3.33a11.18,11.18,0,0,0,5.38-2.21,86.89,86.89,0,0,0,7.26-7.47c1.46-1.58,2.7-3.39,4.27-4.85,2.58-2.39,5.35-1.73,6.68,1.56a23.71,23.71,0,0,1,1.11,4.83c.45,2.58.64,5.21,1.22,7.75a5.49,5.49,0,0,0,7.13,4.1,21.12,21.12,0,0,0,5.27-2.78,37.27,37.27,0,0,0,11.57-14.07,142,142,0,0,0,11-31.43c1.65-6.91,3.31-13.94,3.75-21,.67-10.79-2.8-21-6.6-30.94a31.17,31.17,0,0,0-3.44-7.14,52.89,52.89,0,0,1-9.59-25.85A51.22,51.22,0,0,1,240.88,560c2.07-4.47,4.12-9,6.6-14.32-16.68,13.93-35.31,20.32-56,19.81S152.32,557.4,135.58,543ZM273.79,226a30.6,30.6,0,0,1-.64,3.85c-.87,2.79-3,3.48-5.36,1.74-.79-.6-1.4-1.43-2.17-2-1.11-.91-1.84-.39-2.15.8-.42,1.6-.57,3.29-1.12,4.84-1,2.94-3.8,3.57-5.65,1.07a28.16,28.16,0,0,1-3.9-7.47c-1.92-5.48-3.5-11.09-5.15-16.66-3-10.2-6.06-20.4-11.31-29.77-1.49-2.66-3.19-5.11-5.93-6.55-4.09-2.16-6.42-1.34-8.27,2.84-5.26,11.9-8.1,24-5.95,37.29,2.32,14.33,6.35,27.84,14.57,39.9,2.61,3.85,5.39,7.58,8.18,11.3,4.72,6.32,11,10.38,18.32,13.25,8.68,3.41,17.63,2.78,26.59,2.13a22.74,22.74,0,0,0,6.26-1.47,33,33,0,0,0,17.16-13.8c.87-1.42,2.39-3.66,3.42-5,10-12.6,13.74-27.4,14.8-43.07a94.65,94.65,0,0,0-2-26.26c-2.7-12.56-7.67-24.06-16.3-33.74a38.24,38.24,0,0,0-5.77-4.71,3.28,3.28,0,0,0-4.15.13,36,36,0,0,0-14.35,19c-.34,1-1.16,3.26-1.53,4a27.56,27.56,0,0,0-2.52,13.78c.33,7.23.1,14.58,2,21.76,1.06,4,1.17,8.19,1.56,12.32.14,1.45.16,3.13-1.53,3.9s-3.22.08-4.52-1.15C275.66,227.62,274.91,227,273.79,226Zm-101,329.51a49.52,49.52,0,0,0,5.12-1.86c4.89-2.36,7.86-6.59,10.29-11.2s4.66-9.58,7.16-14.28c3.22-6.05,6.9-11.81,12.73-15.73,1.91-1.28,2-2.8,1.54-4.73-1.87-7.4-3.59-14.86-6.91-21.81-.83-1.73-1.42-4.54-2.66-4.88-1.54-.42-3.47.47-5.27,1.14a44.27,44.27,0,0,0-4.28,1.91c-4.46,2.37-8.92,4.72-13.33,7.16a276.13,276.13,0,0,0-45.94,31.58c-1.86,1.58-2.11,2.29-.57,4.14,3.29,4,6.48,8.09,10.29,11.49a75.83,75.83,0,0,0,28.39,16.15C170.48,555,171.61,555.23,172.82,555.55Zm121.91-405.2c-10.59-6.72-21.52-8.92-33.26-6.93-9.12,1.54-17,5.43-22.92,12.83-1,1.3-2.42,2.31-3.47,3.59-2.49,3.06-4.88,6.21-7.45,9.51a10.81,10.81,0,0,0,2.07,1.24,14,14,0,0,1,8.08,6.23,80.21,80.21,0,0,1,9.5,19.66c3.35,10.78,6.62,21.58,10,32.36a19.47,19.47,0,0,0,1.83,3.19c.72-3.06,1.17-5.32,1.82-7.53a15.72,15.72,0,0,1,1.82-4.2,1.86,1.86,0,0,1,3.35.08,23,23,0,0,1,1.39,3.39c.53,1.3,1.1,2.59,2,4.64a10.88,10.88,0,0,0,1.08-2.41,48.31,48.31,0,0,1,.21-5,4,4,0,0,1,1.6-2.72c1.44-.7,2.41.47,3.09,1.74.76,1.44,1.56,2.86,2.58,4.72.26-1,.54-1.5.46-1.92-.79-4.4-1.67-8.78-2.48-13.18-1.63-8.88-2.27-17.81-.28-26.69.94-4.19,2.52-8.24,3.87-12.34a33.45,33.45,0,0,1,10.59-15.89C291.65,153.5,293,152.05,294.73,150.35Zm-31,341.75c-.49-3.05-1.22-8.64-2.36-14.14-.79-3.83-2.36-5-6.24-5.26a83.3,83.3,0,0,0-10.48.11c-6.28.47-12.57,1-18.79,1.88s-12.39,2.23-18.53,3.61c-3,.67-3,.95-1.85,3.68a112,112,0,0,1,7.07,22.27c.7,3.57,1.26,3.59,5.2,3.07,5.1-.67,10.32-1.42,15.29.41a36.42,36.42,0,0,1,16.31,11.89,17.53,17.53,0,0,0,3.55,3.44c2.38,1.73,2.71,1.65,4.08-1C261.36,513.46,263.52,504.33,263.71,492.1Zm-144.78-14a73,73,0,0,0-1.18,8.29c-.06,2.79.51,5.59.64,8.4.42,9,3.46,17.17,7.66,25,1.21,2.25,1.65,2.21,3.73.48,5.6-4.67,11.14-9.42,16.89-13.9,3.66-2.86,7.65-5.28,11.48-7.92,11.92-8.2,24.26-15.63,37.83-20.84.46-.18,1.06-.3,1.32-.66.42-.56,1-1.47.83-1.94-1.07-2.59-1.88-5.55-3.74-7.45-1.16-1.17-4-.6-6.11-.95-3.54-.6-6.06.57-7.69,3.85a9.36,9.36,0,0,1-6.64,4.87c-4.82,1-9.42.62-13.72-2.54-4.12-3-8.71-5.41-13.1-8.07-1.52-.92-2.16,0-2.43,1.32a15.46,15.46,0,0,0-.23,3c0,3,.08,6-.06,9-.24,5.29-3.09,9.35-7.39,10.71-4,1.28-7.57.05-10.53-2.65C124,483.72,121.72,481.05,118.93,478.09Zm70.19-131a13.39,13.39,0,0,0,1.43-2.65c1.08-4.67,2.29-9.33,3-14.06.83-5.22,1.29-10.5,1.78-15.76a45.55,45.55,0,0,0-2.16-19.13,73.41,73.41,0,0,0-5.41-11.19c-3.49-6.25-7.5-7.07-13.69-3.16-.35.23-.7.48-1,.74-5.55,4.49-8.16,10.4-8.73,17.34-.59,7.16,1.26,13.72,4.19,20.21,3.48,7.7,9,13.84,14.25,20.26C184.73,342.05,186.79,344.35,189.12,347.06ZM226.47,510c-2.64.25-5,.34-7.25.71-3.7.61-4.22,1.66-3.43,5.56q2.42,11.93,4.66,23.89c.65,3.41,1,6.87,1.76,10.26.52,2.41.81,2.47,3,1.54A61.52,61.52,0,0,0,245,538.72a112.51,112.51,0,0,0,7.41-8.72,1.9,1.9,0,0,0-.18-3c-3.27-2.94-6.6-5.83-9.64-9A26,26,0,0,0,226.47,510ZM219,447.06c-2.93,1.62-4,4.46-5.21,7.19-2,4.47-4.82,7.89-9.74,9.27a17,17,0,0,0-4,2c-.44.27-.95,1.13-.82,1.5a54.76,54.76,0,0,0,2.67,6.43c.88,1.73,2.63,1.63,4.38,1a35.69,35.69,0,0,1,4.41-1.25c14.31-2.83,28.71-4.71,43.33-4.36a23.51,23.51,0,0,0,3.62-.49A53,53,0,0,0,246.47,451c-2.63-2.81-2.71-3-5.38-.37-4.7,4.58-10.56,4.86-16.28.94C222.78,450.17,220.91,448.56,219,447.06ZM180.41,556.5c.86.69,1.09,1,1.36,1.07,9.23,1.45,18.45,1.84,27.61-.54,2.24-.58,4.53-1,6.75-1.64a2.56,2.56,0,0,0,2.07-3.32c-1.67-9.77-3.14-19.58-4.79-29.36-.44-2.55-1.27-5-2-8-7.44,5.41-11.7,12.43-15.13,20C192.55,543,188.55,551,180.41,556.5Zm11.76-93.57c-3-4.26-5.34-7.54-8.15-11.49.16,3.47.37,6,.37,8.58,0,2.11.92,3,3,2.91C188.47,462.89,189.6,462.93,192.17,462.93Zm-43.63-1.19.6-.59a18.83,18.83,0,0,0-1.49-2.81,8.84,8.84,0,0,0-1.92-1.46c0,.95-.37,2.13.06,2.78C146.39,460.57,147.59,461.07,148.54,461.74Z" transform="translate(-48.49 -113.46)"/><path class="cls-1" d="M307.5,208.68c-.82-6.6-2.58-8.13-8-7.9-3.67.16-6.66,1.88-9.49,4-.8.59-1.43,1.41-2.21,2-.33.26-1.17.46-1.25.34-.32-.5-.77-1.26-.59-1.69a8.56,8.56,0,0,1,1.8-2.93c4.7-4.67,10.45-6.21,16.91-5.36a4.83,4.83,0,0,1,1.85.66c5.59,3.6,7.21,12.62,2.36,17.3-4.51,4.35-9.89,5.88-15.75,6.45a8,8,0,0,1-3.82-1c-2.92-1.34-3.83-4.7-1.66-7a17.48,17.48,0,0,1,6-4.3C297.88,207.59,302.43,206.84,307.5,208.68Zm-17.68,7.65c4.77,1.85,11.9.39,14.61-2.87.76-.91.21-1.4-.59-1.89-2.13-1.3-4.19,0-6.21.27A10.37,10.37,0,0,0,289.82,216.33Z" transform="translate(-48.49 -113.46)"/><path class="cls-1" d="M241.85,223.7c-1.81-3.28-3.52-5.82-7.51-6s-6.65,1.58-8.69,4.72c-.26.4-.21,1.06-.53,1.36s-1.23.84-1.56.67a2.06,2.06,0,0,1-.77-1.6,5.83,5.83,0,0,1,.62-2.36c2-4.24,8.36-7.19,13.17-6.2,4.63.94,8.35,5.83,8.75,10.87.62,7.73-4.93,11.94-11.22,12.6a22.47,22.47,0,0,1-4.49.06c-2.78-.27-4.17-1.92-3.9-4.73a7.5,7.5,0,0,1,5.49-7C234.5,225.11,237.91,224.56,241.85,223.7Zm-3.55,5.05a4.45,4.45,0,0,0-2.26-.14,18.64,18.64,0,0,0-4.2,1.11,6.82,6.82,0,0,0-2.61,2.71,1.5,1.5,0,0,0,1.54,2.29,38,38,0,0,0,7.53-2,7.14,7.14,0,0,0,2.4-2.45.52.52,0,0,0-.25-.82Z" transform="translate(-48.49 -113.46)"/></svg>