<svg
   version="1.1"
   id="svg8648"
   width="800"
   height="800"
   viewBox="0 0 800 800"
   sodipodi:docname="white-bear-clipart-pdv.svg"
   inkscape:version="1.2 (dc2aedaf03, 2022-05-15)"
   xmlns:inkscape="http://www.inkscape.org/namespaces/inkscape"
   xmlns:sodipodi="http://sodipodi.sourceforge.net/DTD/sodipodi-0.dtd"
   xmlns="http://www.w3.org/2000/svg"
   xmlns:svg="http://www.w3.org/2000/svg">
  <defs
     id="defs8652">
    <clipPath
       clipPathUnits="userSpaceOnUse"
       id="clipPath8664">
      <pth
         d="M 0,600 H 600 V 0 H 0 Z"
         id="path8662" />
    </clipPath>
  </defs>
  <sodipodi:namedview
     id="namedview8650"
     pagecolor="#ffffff"
     bordercolor="#000000"
     borderopacity="0.25"
     inkscape:showpageshadow="2"
     inkscape:pageopacity="0.0"
     inkscape:pagecheckerboard="0"
     inkscape:deskcolor="#d1d1d1"
     showgrid="false"
     inkscape:zoom="1.04625"
     inkscape:cx="400"
     inkscape:cy="400.4779"
     inkscape:window-width="1920"
     inkscape:window-height="1017"
     inkscape:window-x="-8"
     inkscape:window-y="-8"
     inkscape:window-maximized="1"
     inkscape:current-layer="g8656">
    <inkscape:page
       x="0"
       y="0"
       id="page8654"
       width="800"
       height="800" />
  </sodipodi:namedview>
  <g
     id="g8656"
     inkscape:groupmode="layer"
     inkscape:label="Page 1"
     transform="matrix(1.3333333,0,0,-1.3333333,0,800)">
    <g
       id="g8658">
      <g
         id="g8660"
         clip-path="url(lipPath8664)">
        <g
           id="g8666"
           transform="translate(484.75,257.3184)">
          <path
             d="m 0,0 c -3.184,-0.219 -6.356,-0.268 -9.401,-0.081 -2.191,0.133 -4.557,0.333 -7.004,0.54 -9.706,0.823 -23.002,1.952 -27.09,-2.138 -6.777,-6.772 -12.807,-7.787 -20.95,-7.243 -4.505,0.29 -6.409,-1.68 -7.858,-8.143 -5.779,-25.729 -16.044,-51.213 -25.215,-73.08 -6.177,-14.733 -4.456,-19.709 -1.167,-23.024 C -53.726,-88.53 -18.426,-48.395 0,0 m -202.381,293.268 c -119.359,0 -216.468,-97.107 -216.468,-216.47 0,-73.698 37.033,-138.904 93.456,-178.013 -8.218,23.434 -28.704,61.958 -42.119,75.738 -19.989,20.53 -5.166,78.538 3.982,96.438 -0.944,7.968 0.145,13.826 3.332,17.886 4.551,5.81 12.113,6.613 19.425,7.392 1.635,0.174 3.323,0.354 4.91,0.587 4.069,0.599 8.394,4.158 13.866,8.662 9.353,7.696 22.16,18.235 43.614,21.39 18.446,2.718 47.09,-5.115 74.793,-12.686 24.001,-6.557 46.673,-12.757 61.044,-11.851 2.262,0.141 5.932,1.923 9.819,3.809 7.896,3.831 17.723,8.598 26.35,5.357 1.146,-0.415 2.331,-0.852 3.56,-1.307 11.576,-4.281 27.426,-10.147 51.781,-8.84 30.214,1.618 50.605,-0.478 63.987,-6.566 -9.177,110.972 -102.414,198.474 -215.717,198.474 m 25.72,-431.405 c -5.718,-0.678 -11.504,-1.133 -17.349,-1.355 1.135,1.293 1.954,2.827 2.039,4.638 0.152,3.183 -1.99,6.113 -6.365,8.712 -3.409,2.024 -7.07,3.357 -10.611,4.647 -10.045,3.66 -15.197,6.072 -13.292,16.871 1.988,11.255 0.333,29.174 -1.97,44.2 0.723,-0.137 1.514,-0.212 2.383,-0.212 4.157,0 20.758,1.51 36.106,3.641 2.534,-8.859 5.226,-22.047 2.582,-28.88 -2.947,-7.615 -10.56,-48.106 1.723,-51.3 1.658,-0.43 3.243,-0.738 4.754,-0.962"
             style="fill:#fbb040;fill-opacity:1;fill-rule:nonzero;stroke:none"
             id="path8668" />
        </g>
        <g
           id="g8670"
           transform="translate(523.5469,310.7559)">
          <path
             d="M 0,0 5.619,-4.763 1.051,-2.671 C 0.049,-3.69 -2.521,-3.51 -4.669,-3.044 -7.492,-2.43 -5.958,1.377 -4.605,2.483 -3.54,3.355 -1.825,1.73 0,0 m -31.808,25.73 c 0.955,-1.387 1.762,-2.824 2.453,-4.334 -1.218,1.129 -2.331,2.329 -3.536,3.381 -1.157,1.058 -2.443,2.067 -3.646,2.441 -0.608,0.166 -1.088,0.131 -1.524,-0.06 -0.443,-0.195 -0.882,-0.637 -1.277,-1.166 -0.804,-1.071 -1.448,-2.481 -1.955,-3.933 -0.564,-1.44 -1.016,-2.959 -1.434,-4.496 -0.468,-1.522 -0.817,-3.092 -1.243,-4.649 -0.601,-2.347 -1.186,-4.714 -1.865,-7.082 0.152,0.217 0.291,0.45 0.452,0.667 1.969,2.606 4.372,5.071 7.432,6.3 -2.331,-2.222 -3.992,-4.87 -5.509,-7.547 -1.46,-2.702 -2.669,-5.511 -3.351,-8.421 -0.725,-2.892 -0.947,-5.897 -0.409,-8.836 0.525,-2.949 1.774,-5.759 3.363,-8.602 -2.51,2.023 -4.56,4.806 -5.596,8.052 -1.1,3.244 -0.993,6.806 -0.222,10.075 0.651,2.563 1.707,4.981 3.077,7.182 -0.106,2.889 0.026,5.767 0.366,8.634 0.391,3.278 1.016,6.538 2.178,9.754 0.634,1.586 1.33,3.199 2.572,4.672 0.638,0.71 1.421,1.432 2.524,1.809 1.1,0.405 2.352,0.216 3.25,-0.217 1.833,-0.881 2.898,-2.281 3.9,-3.624 m 43.394,-65.747 c -1.428,0.081 -2.806,0.003 -4.151,-.112 -0.126,0.064 -0.255,0.118 -0.382,0.193 -0.991,0.603 -1.938,1.506 -2.804,2.579 -0.881,1.058 -1.707,2.258 -2.724,3.357 -0.52,0.537 -1.064,1.07 -1.741,1.429 -0.665,0.369 -1.404,0.55 -2.118,0.543 1.431,-0.34 2.346,-1.425 2.968,-2.624 0.641,-1.203 1.116,-2.532 1.738,-3.874 0.291,-0.643 0.628,-1.297 1.023,-1.937 -1.771,-0.098 -3.573,-0.056 -5.597,0.383 -4.196,0.916 -5.42,0.552 -7.85,-0.708 -0.003,-0.001 -0.006,-0.003 -0.009,-0.003 -0.693,0.112 -1.387,0.236 -2.072,0.354 l -8.463,1.654 c -5.668,1.098 -11.387,2.149 -17.208,2.52 -2.907,0.173 -5.841,0.215 -8.759,-0.171 -1.459,-0.173 -2.905,-0.501 -4.324,-0.916 -1.408,-0.467 -2.772,-1.078 -4.024,-1.89 -2.375,-1.615 -4.796,-3.167 -7.28,-4.611 -1.244,-0.723 -2.501,-1.416 -3.777,-2.085 l -0.717,-0.381 c -8.174,0.225 -15.713,-0.569 -19.778,-4.629 -5.279,-5.281 -9.491,-5.982 -16.388,-5.532 -1.585,0.107 -2.967,-0.016 -4.209,-0.289 0.712,2.695 1.475,5.413 2.192,8.117 1.413,5.249 2.786,10.529 3.934,15.871 1.134,5.34 2.099,10.744 2.45,16.218 0.162,2.34 0.175,5.49 -0.15,8.215 -0.34,2.711 -1.039,5.43 -2.446,7.759 1.188,-2.45 1.62,-5.15 1.713,-7.815 0.074,-2.681 -0.182,-5.355 -0.585,-8.003 -0.823,-5.299 -2.245,-10.492 -3.831,-15.626 -1.604,-5.134 -3.426,-10.204 -5.298,-15.279 -1.78,-4.888 -3.68,-9.669 -5.276,-14.858 -1.48,-2.518 -2.103,-5.291 -2.497,-7.043 -5.669,-25.262 -15.824,-50.458 -24.895,-72.092 -8.56,-20.407 -3.753,-26.536 2.896,-31.931 0.644,-0.525 1.281,-1.036 1.868,-1.582 1.169,-1.087 2.737,-2.364 4.552,-3.843 3.206,-2.613 10.535,-8.59 11.21,-11.1 -8.222,-3.404 -70.889,-2.215 -76.396,1.544 -2.743,1.961 1.418,13.521 3.906,20.427 1.868,5.192 3.633,10.097 4.174,13.873 1.206,8.451 -0.981,17.537 -2.909,25.555 -0.575,2.391 -1.118,4.65 -1.541,6.761 -0.79,3.95 -0.455,9.117 -0.185,13.269 0.098,1.492 0.176,2.771 0.199,3.891 0.493,2.391 1.18,4.8 1.96,7.197 1.759,5.354 3.932,10.655 6.139,15.954 2.205,5.302 4.486,10.603 6.471,16.037 0.984,2.717 1.898,5.469 2.573,8.29 0.661,2.801 1.153,5.753 0.586,8.597 0.318,-2.878 -0.412,-5.7 -1.294,.397 -0.898,-2.709 -2.029,-5.334 -3.23,-7.928 -2.412,-5.185 -5.12,-10.242 -7.776,-15.351 -2.657,-5.107 -5.306,-10.247 -7.608,-15.648 -0.392,-0.923 -0.766,-1.862 -1.131,-2.803 -0.81,0.066 -1.892,-0.14 -3.025,-1.212 -4.787,-2.8 -49.604,-8.473 -60.313,-8.473 -3.13,0 -3.812,1.229 -4.565,8.222 -0.409,3.817 -0.872,8.145 -3.152,11.676 l -11.141,17.274 5.839,-19.71 c 2.982,-10.058 9.948,-48.487 6.799,-66.323 -2.853,-16.173 7.738,-20.031 17.081,-23.435 3.288,-1.198 6.684,-2.436 9.62,-4.176 2.799,-1.663 3.507,-2.897 3.485,-3.365 -0.023,-0.509 -0.643,-1.961 -5.877,-4.433 -0.247,-0.116 -0.456,-0.217 -0.615,-0.295 -4.037,-2.021 -37.744,-3.292 -58.136,-1.664 -10.294,0.825 -11.67,2.514 -11.69,2.517 -0.024,0.076 -0.03,0.149 -0.042,0.21 -0.018,0.098 -0.053,0.169 -0.076,0.26 l 0.887,0.007 c -0.276,6.678 -0.51,13.342 -1.116,20.112 -0.156,1.697 -0.375,3.408 -0.559,5.107 -0.243,1.713 -0.53,3.441 -0.846,5.166 -0.732,3.465 -1.791,7.002 -3.472,10.315 -1.722,3.302 -3.955,6.101 -6.159,8.709 -2.226,2.586 -4.48,5.013 -6.685,7.474 -2.203,2.463 -4.39,4.915 -6.492,7.445 -2.164,2.514 -4.143,5.002 -6.11,7.681 -7.822,10.623 -15.229,21.636 -22.077,32.958 -3.409,5.668 -6.673,11.433 -9.567,17.384 -1.437,2.977 -2.79,5.997 -3.927,9.103 -1.117,3.104 -2.083,6.305 -2.26,9.628 -0.008,-3.33 0.785,-6.619 1.734,-9.803 0.971,-3.189 2.167,-6.306 3.448,-9.383 1.509,-3.605 3.163,-7.147 4.89,-10.65 3.931,-11.208 15.815,-37.895 20.51,-47.908 5.527,-11.79 15.475,-28.371 14.37,-38.32 -0.89,-8.013 -6.307,-19.164 -7.041,-23.667 -11.869,-0.333 -16.264,0.354 -17.625,1.153 -0.883,0.519 -1.215,0.847 -1.328,0.983 0.11,0.656 1.136,2.379 1.971,3.779 1.353,2.269 3.205,5.376 4.997,9.601 6.101,14.383 -28.592,81.312 -46.533,99.743 -16.031,16.463 -5.326,67.523 4.038,87.647 0.181,-0.059 0.367,-0.127 0.544,-0.173 1.35,-0.357 2.633,-0.485 3.895,-0.504 2.516,-0.022 4.95,0.412 7.228,1.251 2.271,0.839 4.387,2.136 5.996,3.886 1.638,1.724 2.666,3.879 3.143,6.056 -0.947,-2.03 -2.357,-3.772 -4.112,-4.947 -1.732,-1.201 -3.743,-1.872 -5.768,.141 -2.026,-0.274 -4.098,-0.164 -6.004,0.29 -0.947,0.228 -1.859,0.55 -2.602,0.952 -0.282,0.147 -0.515,0.312 -0.708,0.472 -0.797,6.451 -0.127,10.974 2.076,13.785 3.016,3.848 9.038,4.488 15.41,5.167 1.691,0.179 3.441,0.366 5.147,0.617 5.689,0.839 10.816,5.057 16.753,9.942 9.308,7.66 20.893,17.194 40.726,20.11 17.224,2.534 45.262,-5.13 72.38,-12.539 24.488,-6.69 47.614,-13.006 62.965,-12.05 3.421,0.213 7.409,2.147 12.026,4.388 7.26,3.522 15.489,7.516 22.165,5.113 1.13,-0.408 2.298,-0.839 3.512,-1.287 12.056,-4.46 28.568,-10.567 54.141,-9.198 30.177,1.611 50.004,-0.475 62.404,-6.581 C -12.15,28.28 6.512,10.278 8.402,6.605 8.435,6.321 8.463,6.013 8.495,5.682 c 0.328,-3.45 0.878,-9.225 5.311,-14.646 5.388,-6.583 10.314,-14.159 11.439,-17.33 -6.773,5.814 -6.75,3.067 -10.138,-1.682 -2.3,-3.219 -1.627,-7.865 -0.092,-10.31 -1.437,-1.025 -2.677,-1.701 -3.429,-1.731 m -26.617,-2.838 c -8.132,-2.624 -21.607,-5.443 -32.817,-4.778 -2.141,0.13 -4.458,0.325 -6.856,0.529 -3.788,0.322 -7.737,0.656 -1155,0.777 l 0.392,0.182 c 1.309,0.605 2.611,1.229 3.894,1.89 2.572,1.316 5.087,2.745 7.56,4.24 1.194,0.709 2.493,1.231 3.837,1.62 1.358,0.342 2.74,0.598 4.151,0.71 2.81,0.259 5.662,0.111 8.489,-0.169 5.67,-0.584 11.269,-1.838 16.86,-3.15 l 6.787,-1.603 c -0.236,-0.082 -0.478,-0.165 -0.742,-0.248 m -122.452,-123.751 c -3.287,3.315 -5.009,8.291 1.169,23.024 9.17,21.866 19.437,47.351 25.214,73.079 1.45,6.464 3.353,8.434 7.858,8.144 8.143,-0.546 14.177,0.47 20.95,7.243 4.088,4.09 17.384,2.961 27.09,2.137 2.447,-0.207 4.816,-0.408 7.001,-0.54 3.051,-0.185 6.221,-0.137 9.404,0.081 -18.426,-48.394 -53.725,-88.53 -98.686,-113.168 m -95.324,-26.324 c 1.137,1.294 1.954,2.828 2.039,4.638 0.152,3.182 -1.99,6.115 -6.365,8.713 -3.407,2.022 -7.07,3.358 -10.611,4.647 -10.045,3.66 -15.198,6.072 -13.29,16.87 1.983,11.257 0.328,29.174 -1.972,44.201 0.724,-0.139 1.516,-0.21 2.383,-0.21 4.154,0 20.758,1.508 36.108,3.638 2.533,-8.857 5.224,-22.048 2.58,-28.878 -2.947,-7.615 -10.56,-48.108 1.722,-51.301 1.68,-0.431 3.244,-0.739 4.755,-0.96 -5.717,-0.68 -11.504,-1.135 -17.349,-1.358 M -457.645,23.362 c 0,119.361 97.108,216.468 216.467,216.468 113.303,0 206.54,-87.502 215.717,-198.474 -13.382,6.088 -33.773,8.184 -63.987,6.565 -24.355,-1.306 -40.205,4.561 -51.781,8.841 -1.229,0.455 -2.414,0.893 -3.56,1.307 -9.01,3.242 -18.839,-1.526 -26.734,-5.357 -3.888,-1.885 -7.558,-3.667 -9.82,-3.81 -14.369,-0.905 -37.043,5.296 -61.042,11.854 -27.703,7.57 -56.349,15.402 -74.794,12.684 -21.455,-3.154 -34.263,-13.693 -43.614,-21.39 -5.476,-4.504 -9.798,-8.061 -13.867,-8.661 -1.587,-0.234 -3.278,-0.415 -4.91,-0.586 -7.312,-0.779 -14.872,-1.583 -19.428,-7.394 -3.182,-4.06 -4.274,-9.918 -3.327,-17.886 -9.148,-17.9 -23.973,-75.908 -3.984,-96.437 13.415,-13.78 33.901,-52.305 42.119,-75.739 -56.423,39.11 -93.455,104.316 -93.455,178.015 M 18.368,-5.23 c -3.299,4.031 -3.707,8.33 -4.004,11.471 -0.049,0.492 -0.092,0.944 -0.14,1.345 -0.579,4.763 -19.71,22.337 -34.209,30.903 -7.804,115.226 -104.023,206.59 -221.193,26.59 -122.254,0 -221.715,-99.463 -221.715,-221.717 0,-77.833 40.32,-146.418 101.164,-185.989 1.142,-4.48 1.49,-7.877 0.753,-9.614 -1.635,-3.854 -3.299,-6.643 -4.636,-8.885 -1.931,-3.238 -3.328,-5.58 -2.637,-8.27 0.586,-2.293 2.483,-3.659 4.07,-4.591 4.269,-2.512 17.02,-2.703 44.011,-0.657 0.679,0.052 1.34,0.102 1.908,0.144 1.405,-2.906 5.376,-4.891 16.503,-5.781 5.753,-0.459 14.362,-0.726 23.36,-0.726 15.299,0 31.695,0.77 37.051,2.654 0.056,0 0.111,-0.001 0.168,-0.001 14.664,0 28.994,1.445 42.867,4.173 15.121,-4.497 75.231,-4.982 81.082,-0.031 1.273,1.076 1.965,2.569 1.951,4.199 -0.043,4.65 -5.593,9.534 -13.43,15.922 -1.664,1.358 -3.235,2.638 -4.265,3.594 -0.09,0.085 -0.191,0.161 -0.285,0.24 45.988,25.735 81.928,67.364 100.302,117.411 7.352,0.957 14.398,2.657 19.735,4.38 3.089,0.995 4.77,1.868 5.884,2.444 1.367,0.71 1.393,0.722 3.886,0.181 3.946,-0.856 7.225,-0.547 10.115,-0.275 1.612,0.151 3.138,0.29 4.592,0.212 6.289,-0.35 19.021,12.429 20.003,17.35 1.131,5.645 -9.58,19.279 -12.891,3.324"
             style="fill:#000000;fill-opacity:1;fill-rule:nonzero;stroke:none"
             id="path8672" />
        </g>
        <g
           id="g8674"
           transform="translate(300.1069,468.4375)">
          <path
             d="M 0,0 0.07,-0.034 Z"
             style="fill:#000000;fill-opacity:1;fill-rule:nonzero;stroke:none"
             id="path8676" />
        </g>
      </g>
    </g>
  </g>
</svg>