<svg id="Calque_5" data-name="Calque 5" xmlns="http://www.w3.org/2000/svg" viewBox="0 0 463.08 537.34"><defs><style>.cls-1{fill:#fffffd;}</style></defs><path class="cls-1" d="M454.59,251a.07.07,0,0,0-.11,0c-2.33,1.35-4.24,2.61-6.27,3.6-10.9,5.29-21.8,10.61-32.78,15.75-8.72,4.07-18,6.94-25.77,13-9.13,7.08-12.84,16.25-11.38,27.62a16.38,16.38,0,0,0,5.3,10c4.48,4.19,9.05,8.32,13.82,12.19,9.58,7.75,17.14,17,19.76,29.19,3.21,15,5,30.21,3.83,45.59-.55,7.38-1.57,14.73-2.44,22.67a.07.07,0,0,0,.09.08,22.32,22.32,0,0,0,9-5.43c12.48-12.24,27.64-19.5,44.43-23.52a92.78,92.78,0,0,1,16.75-2.41,58,58,0,0,1,29.52,5.89,15.17,15.17,0,0,1,3.13,25.39c-1.92,1.65-2.11,2.77-1.14,5a44.9,44.9,0,0,1,3.52,10.84c1.16,7.59-2.47,13.52-7.82,18.5-2.77,2.57-2.77,2.43-1.46,6.11,2.62,7.33,2.33,14.36-2.45,20.86-3.82,5.2-7.69,6.47-13.87,4.43-.94-.31-1.87-.63-2.82-.92-.13,0-.31.08-.75.2-.17.62-.42,1.38-.59,2.15a30.81,30.81,0,0,1-.8,3.89c-1.79,5-4.13,9.9-10.08,10.57-5.52.63-10.19-2-13.26-6.49-2.32-3.38-3.71-7.4-5.59-11.09a27.13,27.13,0,0,0-3-5.1c-1.58-1.9-3-1.78-4.4.35a30.07,30.07,0,0,0-2.84,5.81c-5.46,14.44-13.65,26.9-25.76,36.72a31.27,31.27,0,0,1-15.29,6.88c-6.69,1-13.42,2.34-20.31.79-3.85-.87-4.6-.07-6.1,4-3.48,9.36-6.94,18.72-10.53,28-4.34,11.23-10.79,21.37-16.52,31.89-6.13,11.23-14.39,20.7-22.92,30.06-12.34,13.56-25.87,25.85-39.77,37.72A201.93,201.93,0,0,1,279,685.12a27,27,0,0,1-17.26,4.42,10.17,10.17,0,0,1-9.31-8.53c-.68-4.3-.43-8.76-.5-13.15a30.49,30.49,0,0,1,.57-4.18.08.08,0,0,0-.08-.09c-1.43.07-2.5.08-3.56.18-3.47.29-6.93.89-10.39.87-6.16,0-10-3.93-9.78-10.13.1-2.92,1.24-5.81,2-8.68.36-1.38.91-2.71,1.49-4.37a.06.06,0,0,0-.06-.09c-1.43-.26-2.51-.48-3.59-.64-4.3-.61-6.68-3.17-7-7.59a9.53,9.53,0,0,1,.1-1.69c.64-3.85,1.24-7.48-3.94-9.46-1.26-.48-1.88-3.72-2.07-5.76-.69-7.72,2.09-14.78,5.07-21.65,4-9.21,10.12-17.15,15.85-25.33,6.49-9.26,12.66-18.74,18.82-28.21,3-4.6,5.64-9.42,8.45-14.14,2.48-4.16,4.6-8.44,5.27-13.36.28-2.1,0-3.33-2.05-4.39-16.45-8.53-29.1-21.24-40.08-36-8.08-10.83-12.89-23.21-18.36-35.34a155.38,155.38,0,0,0-8.94-16.09c-1-1.73-2.84-3-4.3-4.47l-.86.42c.3,3.11.53,6.23.92,9.33.82,6.42,1.83,12.83,2.55,19.26.63,5.64.76,11.29-.86,16.84-1.71,5.86-4.58,7.93-10.6,7.07-1.89-.27-2.8.07-3.25,1.93a16.34,16.34,0,0,1-1.42,3.71c-3.11,5.94-8.53,6.81-13.47,2.12a5.76,5.76,0,0,1-.92-2.21l-1.34.16c-.2,1.43-.53,2.84-.68,4.27-.63,6.14-5.18,9.24-10.87,7-2.53-1-4.7-2.89-7.33-4.57a.07.07,0,0,0-.09,0c-1.19,1.06-.51,2.82-.78,4.32-.57,3.25-.83,6.63-1.93,9.7-1.46,4.07-4.45,5.1-8.44,3.3a27.83,27.83,0,0,1-11.81-9.69,79.79,79.79,0,0,1-12-28.33c-3-13.48-5.4-27.06-5.64-40.94-.25-14.8-.91-29.6-.71-44.4a154.88,154.88,0,0,0-3.57-36.13,71.83,71.83,0,0,1-.85-27.26c.91-5.73,1.1-11.6,2.2-17.29,3.65-18.82,12-35.37,26.14-48.37,10-9.18,21.48-16.25,35.2-18.81,7.18-1.34,14.25-.22,21.32.83,3.77.55,7.5,1.71,11.28,1.95a85.51,85.51,0,0,0,11.85-.51c2-.15,2.13-1.75,2.2-3.34A95.83,95.83,0,0,1,214.68,206c3.58-12.79,8.42-25.06,18.62-34.15,12.38-11,26.68-18,43.58-18.75,5.47-.24,10.94-.89,16.41-.81,19.09.27,34.63,7.78,46.76,22.73,8.87,10.93,13.4,23.61,16.67,37,1.35,5.5,2.26,6.11,7.2,3.19a80.25,80.25,0,0,0,12.62-8.88c17.53-15.58,36.51-29,58.15-38.15,6.85-2.91,14.19-4.77,21.42-6.64a77,77,0,0,1,15.69-2.66c10-.47,20.14.22,29.12,5,7.2,3.87,13.54,9.41,17.35,16.82,4.31,8.41,8.41,17,10.1,26.49a51.44,51.44,0,0,1-1.32,23.68,17,17,0,0,1-4.68,7.52c-2.41,2.34-4.85,4.07-8.39,2.39-2.17-1-3.17.25-3.7,2.29a12.92,12.92,0,0,1-.59,1.72c-1.9,4.61-3.75,5.64-8.86,5-3.79-.46-3.61-.41-5,2.93a26.66,26.66,0,0,1-3.18,5.81c-3.3,4.47-6.45,5.39-11.86,3.37-1.82-.67-2.82-.42-3.66,1.18-.31.59-.62,1.18-1,1.75a10,10,0,0,1-10.57,5.05c-4.51-.57-7.14-3.4-8.35-7.54C456.27,258.9,455.6,255.34,454.59,251ZM270.32,503.45a.06.06,0,0,0,.09-.06c.4-7.45,1-14.35,1.06-21.26.15-15.15.06-30.31,0-45.46,0-4.31-.51-8.62-.67-12.93-.32-9-.56-18,1-26.88.33-1.84.46-4.24,3.1-4.55,1.71-.21,2.47,1.4,2.46,5.17,0,33.64,0,67.29-.23,100.93A112.63,112.63,0,0,1,275,517.67c-.64,3.49-2.35,6.86-4,10.05q-2.19,4.21-4.73,8.23c-6,9.42-11.74,19-18,28.25-5.37,8-11.17,15.72-16.64,23.66a62.22,62.22,0,0,0-9.69,22.83,22.88,22.88,0,0,0-.5,4.44c0,1.57.44,3.31,2.27,3.29,1,0,2.23-1.12,3-2,1.34-1.68,2.23-3.73,3.6-5.37a3.16,3.16,0,0,1,4.51-.52c1.43,1,1.45,2.52.61,4a27.22,27.22,0,0,0-1.56,2.55c-2,4.56-4.18,9.06-5.84,13.74-1,2.91.76,4.46,3.75,3.71a8.46,8.46,0,0,0,2.74-1.18c2.69-1.9,5.28-3.94,7.95-5.87,1.09-.79,2.5-1.68,3.53-.32a4.91,4.91,0,0,1,.74,3.55c-.26,1.22-1.28,2.29-2,3.4-2,3.07-4.33,6-5.91,9.23a37.73,37.73,0,0,0-3.41,10.29c-.6,3.66,1.3,5.38,5,5,5.83-.54,11.63-1.35,15.89-6.11,1.2-1.34,2.65-2.08,4.39-.84s1.24,2.76.79,4.46c-1.34,5.15-2.72,10.3-3.68,15.52-.67,3.64-.59,7.72,2.53,10.15,2.94,2.3,6.86,1.62,10,0,5.44-2.83,11.21-5.49,15.79-9.44,12.59-10.85,24.74-22.23,36.86-33.61a188.17,188.17,0,0,0,13.27-14.23c4.33-5,8.6-10.14,12.43-15.56,3.35-4.74,6.12-9.9,9-15,6.44-11.27,12.63-22.69,16.89-35,3.75-10.82,7.2-21.74,10.91-32.57,1.83-5.35,4.14-10.54,5.88-15.91a627.08,627.08,0,0,0,19.76-76.75,204.37,204.37,0,0,0,3.47-34.18c.19-9.89-1.27-19.55-2.59-29.27-2-14.92-9.29-26.39-21.9-34.68a68.35,68.35,0,0,1-10.22-8.74A30.2,30.2,0,0,1,374,292.73c4.23-9,11.27-15.25,19.76-19.79,6.43-3.44,13.42-5.82,20-8.91,10.56-4.91,21.28-9.55,31.46-15.17,14.48-8,25.7-20.17,36.21-32.9a31.93,31.93,0,0,1,4.78-4.44c.93-.76,2.34-3,3.83-1.55a4,4,0,0,1,.78,3.57,20.1,20.1,0,0,1-3.68,5.84c-6.55,7.08-13,14.32-20,20.88-3.95,3.68-5.74,7.51-5.07,12.68.25,1.95.49,3.92.9,5.84a6.6,6.6,0,0,0,.89,2.22c2,3.14,4.33,3.49,6.45.81,2.48-3.12,3.75-6.63,2.54-10.71-.55-1.82-.81-3.71,1.35-4.76,1.92-.92,3.87,0,5.25,2.44.91,1.59,1.58,3.31,2.52,4.88,1.91,3.19,3.77,3.2,6.11.22,2.6-3.32,2.6-7.1,1.92-11-.35-2-1-3.86-1.43-5.81s.08-3.33,1.91-4.13,3.26.15,4.23,1.62,1.68,3.27,2.71,4.77c1.21,1.77,2.6,4.13,5,3.34s2-3.6,1.82-5.68c-.21-2.48-.94-4.9-1.24-7.38-.32-2.74,1.33-4.18,3.89-3.33a8.82,8.82,0,0,1,3.17,2.25c.93.93,1.5,2.2,2.37,3.2,3.23,3.72,5.57,3.62,7.29-.88a43.21,43.21,0,0,0,2.54-11.59c1.16-13.6-4.17-25.61-10.9-36.72-9.13-15.06-24.28-18-40.45-17.12-5.26.29-10.45,1.92-15.65,3-9.33,2-17.9,5.85-26.54,9.91-16.47,7.72-30.74,18.47-44.47,30.09-7.14,6-14.12,12.21-23.3,15a4.92,4.92,0,0,0-3.64,4.24q-.81,4.16-1.86,8.27c-3.36,13.1-9.69,24.41-20.53,32.77-13.64,10.52-28.79,17.27-46.38,17a192.4,192.4,0,0,1-21.88-1.2c-8.57-1.09-17.16-2.71-24.44-7.91a122.63,122.63,0,0,1-10.51-8.39,62,62,0,0,1-17.62-26.22c-.59-1.71-.55-4.18-1.71-5s-3.37.32-5.13.54a17,17,0,0,1-3.48.25c-5.61-.49-11.23-.95-16.82-1.66-7.42-.94-14.84-2.52-22.28-.59a68,68,0,0,0-34.78,21.2,83.89,83.89,0,0,0-19.6,39.81,166.24,166.24,0,0,0-2.69,19.23c-.57,7-.66,14,.82,20.94a184.44,184.44,0,0,1,4.14,39.4c-.09,15.85.41,31.7.81,47.54.28,11.35,2.66,22.42,4.65,33.55a71.43,71.43,0,0,0,8.87,24.25,65.45,65.45,0,0,0,7.65,9.74c.82.93,2.49,1.11,3.8,1.62a.07.07,0,0,0,.08,0,14.7,14.7,0,0,0,1.15-3.57c.42-6.29.69-12.6,1-18.9,0-1-.21-2.15.21-2.95.64-1.22,1.56-2.69,2.7-3.12.81-.3,2.56.67,3.25,1.57a46.39,46.39,0,0,1,3.51,6,49.08,49.08,0,0,0,3.34,6.1c.89,1.18,2.55,2.54,3.82,2.51,2-.05,2-2.28,2.09-3.92.11-3.49.07-7,.17-10.49,0-1.31-.09-2.86.54-3.87a21.6,21.6,0,0,1,3.67-3.67.08.08,0,0,1,.1,0c1,1.19,2.11,2.33,3,3.61a16.45,16.45,0,0,1,.85,2.33c1.4,2.83,2.68,5.75,4.35,8.42,1.49,2.39,3.12,2.17,4.43-.34a15.08,15.08,0,0,0,1-2.81,23.51,23.51,0,0,0-.08-13.3,11.47,11.47,0,0,1-.65-4.37,3.69,3.69,0,0,1,2-2.42,2.94,2.94,0,0,1,2.49,1.13,21.28,21.28,0,0,1,1.79,4.07c1,2.47,1.84,5,3,7.36a3.49,3.49,0,0,0,2.64,1.76,3.57,3.57,0,0,0,2.15-2.36c.67-2.73,1.5-5.58,1.32-8.32-.51-7.45-1.25-14.91-2.36-22.29a353.65,353.65,0,0,1-3.26-41.22,88.92,88.92,0,0,1,.9-13.42c.64-5.26,1.61-10.48,2.52-15.7a6.2,6.2,0,0,1,1.17-2.72c.57-.69,1.63-1.5,2.34-1.39s1.48,1.37,1.52,2.16a44.88,44.88,0,0,1-.32,6.95c-.4,3.3-1.35,6.56-1.42,9.85-.23,9.49-.12,19-.18,28.48a6.2,6.2,0,0,0,2.39,5.13,59.77,59.77,0,0,1,14,17.33c3.84,7.41,7.26,15,10.64,22.68a111.19,111.19,0,0,0,10.51,18.66c6.14,8.82,13.67,16.31,21.58,23.42,4.31,3.87,9.23,7.07,14,10.47A21.4,21.4,0,0,0,270.32,503.45Zm54.66-334a.07.07,0,0,0-.09,0c-.75.63-1.06.79-1.22,1a20.16,20.16,0,0,0-1.23,2.17c-7,14.56-6.34,30.33-6.81,45.8,0,4.84-.45,8.57-.6,12.84a3.51,3.51,0,0,1-5.4,3.09c-2.17-1.22-3.32-1.41-5.21.59a2.33,2.33,0,0,1-2.25.11c-.73-.48-1.54-.93-2.3-1.39a.92.92,0,0,0-1.06.13c-3.87,3.73-5.51,3.22-7.49-2-1.12-3-2.14-5.94-3.08-8.94-3.54-11.26-6.67-22.66-10.67-33.75-3-8.24-6.44-16.42-13.06-22.71-3.94-3.74-4.54-4.26-9.52-1.74-11.28,5.74-21.25,13-27,24.87A97,97,0,0,0,219,219c-1.82,13.16,1.28,24.64,9,35.21,4.49,6.15,10.47,10.6,16.13,15.5,4.88,4.22,10.47,6.25,16.57,7.51,10.67,2.2,21.47,2.07,32.28,2A42.32,42.32,0,0,0,308.47,276a116.51,116.51,0,0,0,14.45-6.75c17.94-10.28,26.93-26.47,28.29-46.57.82-12.18-3.91-23.49-9.82-34.06-1.74-3.12-4.59-5.61-6.48-8.68C332.32,175.73,328.69,172.72,325,169.46ZM491,405.69h0c-1.75.22-5,.66-8.33,1a86.08,86.08,0,0,0-46.63,19.67c-4.72,3.89-9,8.62-15.13,10.32-2.88.79-3.91,2.66-4.53,5.26-2.74,11.48-5.43,23-8.38,34.39-2.66,10.3-5.43,20.58-8.57,30.74-2.37,7.62-5.43,15-8.14,22.53-1.12,3.1-.67,3.95,2.58,4.19a60,60,0,0,0,21.25-1.95,30.15,30.15,0,0,0,12.26-7.33c9.73-9,16.44-20,21.32-32.18a28.75,28.75,0,0,1,3.83-7c4.47-5.74,10.24-5.55,14.26.59a73.39,73.39,0,0,1,5.38,10.66c1.44,3.3,3.29,6.16,6.47,8,3,1.71,5,1.41,6.74-1.58a13.38,13.38,0,0,0,1.9-6,75.2,75.2,0,0,0-.72-9.91c-.18-1.91-.19-3.85,1.77-4.78,2.11-1,3.86,0,5.2,1.75a13.88,13.88,0,0,0,1.83,2.36c2.55,2.09,5.2,5,8.72,3.67,3.33-1.21,4.53-4.66,5.13-8.07.09-.49,0-1,.12-1.49.75-4.86-1.62-8.62-4.17-12.42-2.93-4.36-2.21-6,2.88-7.13a9.82,9.82,0,0,0,5.85-3.45c3.38-4.08,3.89-8.45,2.74-13.56-1.06-4.7-3.5-7.36-8.11-8.23a2,2,0,0,1-.47-.16c-1.62-.76-2.78-1.87-2.71-3.8s1.58-2.83,3.21-3.36c2.21-.72,4.54-1.13,6.67-2a7.73,7.73,0,0,0,5-8.36c-.51-3.82-2.81-6.25-6.28-7.74C507.1,407.35,500,405.94,491,405.69ZM296,231c.76-2.55,1.36-4.52,1.95-6.49s1.16-.2,1.25,0c1.15,2.19,2.2,4.29,3.67,7.08a.25.25,0,0,0,.46,0c.65-2.09,1-3.54,1.61-4.91a1.45,1.45,0,0,1,2.73-.16c.66,1.14,1.11,2.51,1.66,3.62a1.84,1.84,0,0,0,1.76,1.27.13.13,0,0,0,.09,0,3.29,3.29,0,0,0,1.12-2,5.76,5.76,0,0,0-.05-2c-.22-3-.7-6-.63-8.92.14-5.81.74-11.61.89-17.41a75.56,75.56,0,0,1,7.38-30.8c1.42-3,1.38-3.82-1.54-5.06-4.58-1.94-9.23-4-14.05-5-11.37-2.41-22.84-1.11-34.24.29a17.78,17.78,0,0,0-3.47,1.28.08.08,0,0,0,0,.12c7.13,7.42,11.22,16.08,14.2,25.23,4.07,12.49,7.73,25.11,11.63,37.65.63,2,1,4.18,2.51,6.48A.61.61,0,0,0,296,231Z" transform="translate(-66.1 -152.27)"/><path class="cls-1" d="M189.13,599.83a64.79,64.79,0,0,1-3.37,22.28,41.39,41.39,0,0,1-12.1,18.54c-4.62,4.11-9.2,8.17-14.6,11.21-11.54,6.5-23.87,7.82-36.72,5.44a97.65,97.65,0,0,1-25.11-8.06c-8.33-4-14.59-10.28-20.17-17.44-7.56-9.73-10.61-20.75-10.91-33a92.67,92.67,0,0,1,1.57-21.45c1.91-9.2,9.59-21.64,16.73-27.74a74.35,74.35,0,0,1,18.47-11.06c6.21-2.66,11.8-4.86,19.18-5.42a27.76,27.76,0,0,1,5.36.36c13.1,1.51,24.38,7.4,35.06,14.69,1.1.75,2.12,1.64,3.28,2.27,9.93,5.46,15.73,14.49,19.4,24.58A64.15,64.15,0,0,1,189.13,599.83Zm-56.55-14.68v.05a62.27,62.27,0,0,0-7,.07,6.66,6.66,0,0,0-3.91,1.58c-3.64,3.86-7,8-10.53,11.93-1.39,1.52-2,3-1.1,4.93,1.85,4.07,3.53,8.23,5.58,12.21,1.92,3.73,5.85,5,10.57,4.68a35,35,0,0,1,13.78,2c2.58.88,4,.51,4.88-1.13,2.05-3.79,4.23-7.53,5.93-11.49.54-1.27,0-3.24-.53-4.7-2.16-5.74-4.61-11.37-6.76-17.11-.84-2.22-2.15-3.16-4.46-3.07C136.9,585.22,134.74,585.15,132.58,585.15Zm-10-31.74a3.14,3.14,0,0,0-2.27.3,5.81,5.81,0,0,0-2.13,1.71c-1.62,2.5-2.71,5.32-4.14,7.94-1.21,2.21-.74,4,1.31,6.08a31.76,31.76,0,0,1,6,8.08c1.51,3,3.21,3.53,6.19,4.05,3-.1,6.05.25,8.92.22,4.35-.13,6.48-.56,8.42-3.71.34-.54,1-1.39,1.34-1.89,6-8,6-8.07,1.13-16.9a3.68,3.68,0,0,1-.23-.44c-.81-1.91-2.21-2.55-4.3-2.65-4.45-.21-8.91-.64-13.33-1.21A61,61,0,0,1,122.63,553.41ZM143.71,639c-.54-3.7-.82-6.68-1.47-9.57a4,4,0,0,0-2.24-2.21,16.15,16.15,0,0,0-4.33-1c-5.56-.74-11.14-1.37-16.7-2.11-1.45-.19-2.34-.06-3.13,1.5a55,55,0,0,1-4.55,7.08c-1.65,2.31-2.51,4.46-.89,7.29,1.31,2.28,1.84,5,3.06,7.32.71,1.37,1.91,3.13,3.18,3.43a135.77,135.77,0,0,0,15.14,2.51,5.16,5.16,0,0,0,3.76-1.66,77.82,77.82,0,0,0,6.27-8.3A23.85,23.85,0,0,0,143.71,639Zm-56.48-53a37.62,37.62,0,0,1,.4,3.84c.12,3.94,2.23,6,5.94,6.83a44.87,44.87,0,0,1,8.09,2.5c2.35,1,3.58.34,5-1.49,3.27-4.19,6.76-8.2,10.13-12.31,2.08-2.54,2.08-3.34.08-6.13-2.13-3-4.36-5.89-6.41-8.92-1.11-1.63-2.26-2.3-4.32-1.57-1,.34-1.92.69-2.91.94C89,573.31,87.16,573.5,87.23,586.05ZM173,596.46a41.49,41.49,0,0,1-.59-6c0-1.05-.09-2.13-.1-3.31a5.36,5.36,0,0,0-1.31-3.59c-4.15-3.79-8.48-7.39-12.78-11-2-1.65-3-.16-5.05,1.81a40.61,40.61,0,0,0-3.87,4.5c-2.08,2.65-3.56,4.15-2.45,6.93,2.34,5.83,4.55,11.71,6.85,17.56,2.72,6.88,2.74,6.87,9.35,3.75.75-.35,1.46-.78,2.22-1.12C169.9,603.86,173.74,601.31,173,596.46ZM99.8,634.61c2.1-.73,4.65-.35,6-1.76,2.77-2.8,4.8-6.32,7.2-9.48,1.08-1.42.86-2.5,0-4a63.92,63.92,0,0,1-5.08-10.17c-1-2.72-2-4.19-5.18-4.82-4.68-.92-9.18-2.8-13.7-4.43-1.93-.7-3.28-.25-4.15,1.46a46.25,46.25,0,0,0-2.32,5.47,2.37,2.37,0,0,0,.27,1.83c3,4.52,5.92,9.07,9.06,13.46a5,5,0,0,1,.59.92c1,2.57,1.19,3,1.16,5C94.48,634.09,93.45,634.06,99.8,634.61ZM88,569.41c1.43-.45,2.71-.81,4-1.25,4.39-1.51,8.69-3.52,13.2-4.44,3.88-.78,5.75-2.77,7.78-6,3.11-4.92,2.94-8.7-.55-13.3-1.74-2.3-2.88-2.49-5.19-1.64a62,62,0,0,0-21,13.18c-1.64,1.52-4.18,3.71-4,5.25.38,2.55,2.63,4.84,4.18,7.17C86.75,568.88,87.48,569.09,88,569.41Zm65,71.14c3.91,0,3.8,0,5.58-3.87a16.16,16.16,0,0,1,3-3.92,133.53,133.53,0,0,1,9.68-10.07c4.65-4.06,3.57-8.23,1.22-12.82-.87-1.7-1.57-2.14-3.42-1.2a43.94,43.94,0,0,1-9.15,3.81c-4.37,1.08-6.5,3.34-9.09,7.47-1.13,1.8-2.16,3.74-3.4,5.51a6.71,6.71,0,0,0-1.06,5.68c.38,1.62.65,3.26,1,4.88C148.35,640.37,148.57,640.53,153,640.55ZM79.11,564.8a10.71,10.71,0,0,0-1.25,1.42,24.73,24.73,0,0,0-1.29,2.7c-4.29,10.91-4.88,22.29-4.27,33.82a8.22,8.22,0,0,0,.25,1.47c.53,2,2.17,2.22,3.88,2.45,1.93.26,2-1.17,2.54-2.38,1.12-2.69,2.4-5.31,3.42-8a20.88,20.88,0,0,0,1.19-5.17c.5-4.87.87-9.76,1.26-14.64.08-1,.38-2.15,0-2.87C83.07,570.62,81.09,567.81,79.11,564.8Zm54.46-26.16a22.57,22.57,0,0,0-10.21.06c-2,.45-3.92.92-5.85,1.47-.72.2-1.83,1.59-1.67,1.92,1.39,3,2.83,6.45,6.21,7.3,5.76,1.44,11.7,2.24,17.59,3.13,3.57.53,6.47-1,8.81-3.66,1.71-1.94,1.81-2.75-.21-4A52.16,52.16,0,0,0,133.57,538.64ZM177,573c-.74-1.55-1.23-2.59-1.72-3.63-4.22-8.93-12.78-13.11-20.23-18.49-1.52-1.09-2.8-.25-3.94.88s-2.24,2.36-1.17,4.3c1.67,3,3.11,6.21,4.75,9.28a6.2,6.2,0,0,0,1.88,2.21c4.52,3,9.08,6,13.72,8.81a3.57,3.57,0,0,0,3.09.28A23.08,23.08,0,0,0,177,573ZM89.66,631.86c.52-3.44-.91-5.66-2.18-8.49-.81-1.79-2-3.47-2.76-5.46-1.77-4.51-6.35-5.72-10.27-7.07-1.5-.52-2.22.33-2.21,1.76a6.41,6.41,0,0,0,.41,2.43,54.67,54.67,0,0,0,11.73,17.79,4.93,4.93,0,0,0,1.89,1Zm90.06-52.54a1.23,1.23,0,0,0-2-.52c-1.42,1.36-2.34,2.62-2.2,4.47.23,3.14.62,6.28,1,9.41a67.86,67.86,0,0,1-.94,13.09,10.46,10.46,0,0,0-.21,1.42c-.12,2.82,1.39,5.39,2.7,8a1.17,1.17,0,0,0,2.15-.14C184.18,603.17,183.25,591.48,179.72,579.32Zm.35,46.28a2.15,2.15,0,0,0-.86-2.79c-.82-.7-2.12-.09-2.69.43-1.93,1.79-3.64,3.82-5.42,5.77-2.66,2.92-5.36,5.82-7.95,8.81-1,1.2-1.62,2.88-.08,3.88a3.36,3.36,0,0,0,3.57-.27c.14,0,.27-.18.38-.3,3.59-3.64,7.32-7.16,10.69-11A16.13,16.13,0,0,0,180.07,625.6Zm-38,25.18c6.33-.38,13.4-3.69,15.17-7-1.64.13-3.34.58-4.92.33C146.77,643.21,144.13,646.37,142,650.78Zm-33.93-4.14a34.73,34.73,0,0,0-1.89-5.13c-.52-.9-1.5-2-2.4-2.14a21.15,21.15,0,0,0-9.32.44A43.31,43.31,0,0,0,108.09,646.64Z" transform="translate(-66.1 -152.27)"/><path class="cls-1" d="M252,231.57a64.93,64.93,0,0,1,6.08-2.85c2.78-.95,5.58-.94,8.08.89,2,1.47,2.36,3,1.11,5.18-1.4,2.42-3.31,4.28-6.35,4-2.61-.25-5.37-.37-7.73-1.34-4.77-2-5.7-5.94-2.55-10a19.78,19.78,0,0,1,4.51-3.81,15.66,15.66,0,0,1,2.78-1.38.53.53,0,0,0,0-1c-2.86-.91-4.43-.56-7,1.7s-4.83,4.93-7.37,7.56c-1.2,1.16-.83-.89-.76-1.17,1.68-7.24,8.91-12.67,16-12.21a12.19,12.19,0,0,1,9.22,5.18,3.15,3.15,0,0,1,.47,1.31,1.61,1.61,0,0,1-1.16,1.8,2.21,2.21,0,0,1-1.31.07c-4.47-1.64-8.14-.06-11.53,2.63C253.72,228.77,252.37,229.39,252,231.57Zm2.74,2.6c1,3.36,9.54,2.25,9.84-1.17a1.54,1.54,0,0,0-.66-1.38c-2.61-1.84-9.11-.29-9.2,2.4A.26.26,0,0,0,254.77,234.17Z" transform="translate(-66.1 -152.27)"/><path class="cls-1" d="M334.15,216.6c-3.47-2.77-6.83-1.72-10.18-.89a.74.74,0,0,1-.68-1.27c3.2-2.71,7.81-3.56,11.27-2,3.69,1.64,6.43,6.64,5.5,10.73a5,5,0,0,1-2.56,3.25,46.64,46.64,0,0,1-9.13,2.15,6.39,6.39,0,0,1-3.69-1.13c-2.6-1.55-2.9-4.11-.72-6.2,1.8-1.72,3.8-3.2,6.53-3.14.94,0,1.88-.06,3.24-.15A.74.74,0,0,0,334.15,216.6Zm1.7,6.49a1,1,0,0,0,0-1.34c-1.72-2.7-6.27-1.87-8.17,0a4.32,4.32,0,0,0-1.34,1.51.74.74,0,0,0,.22,1,3.77,3.77,0,0,0,1.73.8C330.9,225.17,333.83,225.59,335.85,223.09Z" transform="translate(-66.1 -152.27)"/></svg>