<svg id="Calque_1" data-name="Calque 1" xmlns="http://www.w3.org/2000/svg" viewBox="0 0 509.79 544.89"><defs><style>.cls-1{fill:#fffffd;}</style></defs><path class="cls-1" d="M428.33,640.72h0c-.49,3.63-.82,7.23-1.53,10.76a23.38,23.38,0,0,1-2.24,6c-1.84,3.59-4.89,5-9,5.15-7.77.32-14.43-1.82-20-8.48h0c-.33,1.74-.57,2.59-.64,3.47s.08,2,0,3c-1.06,9.78-5.69,13.25-15.87,9.71-4.68-1.63-8.06-5.3-11.16-9a83.8,83.8,0,0,1-13.53-22.55,253.52,253.52,0,0,1-11-33.87,84.82,84.82,0,0,1-2-13.54c-.26-5.67-.3-11.36-.05-17a128.23,128.23,0,0,1,7.09-36.49c7.86-22.69,18.71-44.09,27.72-66.27,5.32-13.11,10.86-26.19,13.89-40.08a108.56,108.56,0,0,0,2-13.44,108.13,108.13,0,0,0,.87-11.64,52.61,52.61,0,0,0-1-10.88A60.93,60.93,0,0,0,381.41,373a12.73,12.73,0,0,0-8.72-5.31c-5.09-.62-10.26-.78-15.25,1.26a57.62,57.62,0,0,0-15.71,9.56c-4.42,3.77-8.71,7.73-12.75,11.91a266.7,266.7,0,0,0-27.23,32.46A127.33,127.33,0,0,1,290,437.05c-6.13,6.5-13.71,11-21.91,14.5a7.93,7.93,0,0,1-2.35.78c-6.82.45-13.63.71-20.22-1.68a409.51,409.51,0,0,1-40.83-17.4c-7.46-3.66-15-7.14-22.71-10.31-10.26-4.24-20.52-3.86-30.27,1.59a72,72,0,0,0-11.85,8.25c-3.1,2.68-4.09,6.76-4.67,10.77-1.06,7.39-2,14.81-3.15,22.18a29.19,29.19,0,0,1-2.15,6.61c-2.06,4.91-6.54,6.29-11.65,4.46a19.44,19.44,0,0,1-5.45-3.4c-1.26-1-2.15-2.5-3.71-4.38h0c-.81,2.2-1.26,3.52-1.77,4.8-.92,2.31-1.82,4.64-2.83,6.9-4,8.94-15.19,8.13-20.23,3.11-1.51-1.5-2.93-3.08-4.62-4.87h0c-.6,1.43-1.09,2.64-1.61,3.84a27.19,27.19,0,0,1-8.11,10.6,9.15,9.15,0,0,1-11.56.33c-5-3.72-8.37-8.6-8.81-15-.5-7.29-.65-14.61-1.18-21.91A165,165,0,0,1,48.72,432c1-13.06,2.13-26.18,6.69-38.65,4.66-12.76,11.72-23.73,22.85-32a114,114,0,0,1,23.37-13.2,244.6,244.6,0,0,1,31.67-10.47c6.4-1.75,12.82-3.4,19.23-5.14a25.34,25.34,0,0,0,2.93-1.23h0c-1.33-3.54-2.57-6.87-4.07-10.91h0c-.69,1.23-1.13,2-1.51,2.68a15.93,15.93,0,0,1-6.36,6.35c-6.71,3.57-11.68,2.13-16.18-2-6.36-5.83-8.73-13.3-9.74-21.28a169.6,169.6,0,0,1-1.09-20.91A120.46,120.46,0,0,1,124,243.79c4.61-12.89,11.54-24.3,19.12-35.43,2.31-3.39,5.5-6.23,8.52-9.07A173.83,173.83,0,0,1,176.4,180a90.7,90.7,0,0,1,28.84-12c6.6-1.54,13.32-2.66,20-3.64,4.54-.67,12-1.32,16.58-1.46,7.09-.21,14.21-.3,21.27.19,7.92.54,15.81,1.88,23.65,3.19a115.63,115.63,0,0,1,16.51,3.71c11.21,3.62,22.28,7.69,33.37,11.67,7,2.51,14,5.21,21.36,8h0c.41-2.23.93-4.15,1.08-6.09,1-12.2,4.47-23.74,11.35-33.68,7.84-11.34,18.28-19.66,32.58-22,6.28-1,12.51-1.91,18.77-.28,8.46,2.22,15.17,7.36,21.38,13.24,6.37,6,9.8,13.62,11.76,22,1.36,5.81,3.48,11.51,4.16,17.38a100.26,100.26,0,0,1-6.76,50.33c-.8,2.07-.43,3.47,1.32,4.73,2.28,1.64,4.28,3.79,6.75,5,4.42,2.18,7.85.56,9.3-4.2a31,31,0,0,0,1.48-8.29c.14-8.16.24-16.34-.19-24.48-.35-6.44-1.56-12.84-2.3-19.27-.58-5.11-1.27-10.23-1.45-15.36a26.32,26.32,0,0,1,5.08-16.38c2.73-3.91,6.5-5,10.91-4.3a7.33,7.33,0,0,1,3.4,1.86c3.06,2.73,4.87,6.24,5.72,11.23h0c1.33-2.12,2.12-3.51,3-4.82,3.59-5.17,9.51-6.8,14.54-4.07a9.06,9.06,0,0,1,3.89,4.37c.51,1.16,1,2.38,1.65,3.86h0c3-4.77,6.42-8.67,12.51-7.33,5.8,1.28,7.69,5.76,8.14,11.39h0c1.67-.75,3-1.42,4.33-1.94,4.19-1.62,8.12-.57,10.4,3.28a32.11,32.11,0,0,1,3.64,8.68,123.45,123.45,0,0,1,2.67,41.55c-1,10.27-2.55,20.42-4.41,30.53-2.71,14.69-5.1,29.47-9.74,43.73a154.33,154.33,0,0,1-11.83,27.46c-3.3,5.94-8.34,10.3-13.6,14.44a73.88,73.88,0,0,1-14.69,9.35c-11,5.07-22.33,5.72-33.46,1.45-13-5-25.74-10.87-37.38-18.79-4.67-3.18-9.64-5.92-14.56-8.72a15.94,15.94,0,0,0-5.09-1.91c-4.42-.74-7.85,2.71-7.29,7.76s2.4,9.59,7.46,12.21c10,5.17,20.64,8.3,31.42,11.14,6.42,1.69,12.89,3.18,19.32,4.84a92.15,92.15,0,0,1,25.48,11.2c10.22,6.33,16.15,16.69,19.9,28.23a87.25,87.25,0,0,1,3.63,34.67,163.32,163.32,0,0,1-11.23,46.72,287,287,0,0,1-15.59,31.79,226,226,0,0,1-12.18,19.35c-8,11.53-12.85,24.37-16.46,37.81a103.22,103.22,0,0,0-3.12,28.12c.11,9,.95,17.9,1.79,26.83A51,51,0,0,1,453.26,636a12.91,12.91,0,0,1-4.81,6.8c-3.69,2.54-7.66,1.88-11.53,1A78.28,78.28,0,0,1,428.33,640.72ZM187.08,331.62h0c-1.09,2.54-1.86,4.55-2.8,6.47-2.1,4.33-5.81,6.12-10.43,6.53a14.19,14.19,0,0,1-12.12-4.71c-2-2.2-3.76-2.54-6.53-1.8-18.62,5-37.16,10.16-55,17.68a77.31,77.31,0,0,0-23.1,14.95,61,61,0,0,0-17.88,32.42,216.63,216.63,0,0,0-3.18,22.27,271.8,271.8,0,0,0-1.46,38c.12,2.61.37,5.21.6,7.81.39,4.27.32,8.85,2.83,12.76,3.18,5,8.39,4.91,11.77.09,3.22-4.58,4-9.88,4.65-15.22.45-3.51,1.44-5,3.58-5.12,2-.08,3.17.95,4,4.33.89,3.73,3.17,6.53,5.42,9.42,3.5,4.47,9.49,4.82,12-1.76a52.25,52.25,0,0,0,3-13.56c.29-2.81.56-5.62,1-8.41.26-1.59,1.34-3,3-2.76a5,5,0,0,1,3.1,2c.83,1.18,1,2.81,1.57,4.17,1.59,3.63,2.41,7.66,5.51,10.51,1.61,1.48,3.46,3.5,5.52,2.5,1.43-.7,2.49-3.09,2.85-4.9,1-5.2,1.59-10.5,2.39-15.75.56-3.6,1-7.25,1.89-10.78,1.26-5.06,3.2-9.77,8-12.7,1.69-1,3.07-2.55,4.68-3.72,13.05-9.51,27.16-12,42.32-5.92,7.25,2.91,14.4,6.1,21.39,9.59,11.93,5.94,24.13,11.2,36.49,16.14,6.59,2.62,13.27,4.2,20.41,3.73a15.59,15.59,0,0,0,6.62-1.87c10.93-5.88,19.56-14.21,26.62-24.35,7.42-10.66,15.28-21,24.65-30.05a44.64,44.64,0,0,0,4.2-4.28c5.89-7.39,13.46-12.82,21.16-18.06A36.46,36.46,0,0,1,372,361a22.18,22.18,0,0,1,15.77,9.51c.76,1.1,1.33,2.32,2.09,3.41,5.28,7.51,7.91,15.94,9.28,25,.71,4.7,0,9.25-.05,13.87a98.76,98.76,0,0,1-6.1,33.14C387.9,460,382.58,474,376.77,487.74c-7.11,16.85-15,33.34-21.16,50.62A140,140,0,0,0,349,563.84a121.31,121.31,0,0,0-.89,24.9,75.27,75.27,0,0,0,2.39,16.19c2.7,9.59,6.23,19,9.22,28.46,2.13,6.77,5.75,12.74,9.62,18.54a56.85,56.85,0,0,0,7.05,8.25,21.6,21.6,0,0,0,2.27,2c5.48,4.14,9,3.31,9.44-1.28a18.12,18.12,0,0,0-.4-5.92c-.79-3.21-2-6.33-3-9.48-.61-1.85-.76-3.61.95-5a4.45,4.45,0,0,1,5.92.29c1.46,1.33,2.56,3,3.91,4.5,4.85,5.27,9.49,10.75,17.69,10.67,4.09,0,5.72-.87,6.92-4.74,1.7-5.48,1-10.82-.63-16.17a23,23,0,0,1-1.15-5.32,3.11,3.11,0,0,1,4.67-3.12,20.88,20.88,0,0,1,4.48,3.08c1.9,1.61,3.45,3.69,5.5,5.06,3.2,2.14,6.95,4.1,10.73,2.41s4.45-5.61,4.49-9.38c.05-5.48,1-10.93.11-16.44a106.86,106.86,0,0,1-1.07-12.63c-.14-6.89-.17-13.79,0-20.68a67.28,67.28,0,0,1,1.22-12.37,150.11,150.11,0,0,1,12.29-36.25c2.46-4.87,5.7-9.35,8.49-14.06,4.84-8.15,9.56-16.36,14.41-24.51,5.63-9.48,9.77-19.64,13.58-30a139.73,139.73,0,0,0,7.66-31.37,101.39,101.39,0,0,0,1-18.4,74.53,74.53,0,0,0-6.33-26.52c-3.46-7.6-8.25-14.23-15.5-18.43-9.25-5.37-19.08-9.63-29.75-11.71-5.87-1.15-11.66-2.65-17.39-4.37-9.93-3-20.1-5.5-29-11.12-7.27-4.56-10.06-11.48-9.44-19.59.7-9.25,6.4-12.81,14.24-12.55A20,20,0,0,1,422,310c4.62,2.65,9.26,5.29,13.64,8.3,11.2,7.68,23.48,13.18,36,18.24a33.41,33.41,0,0,0,21,1.43c9.52-2.38,17.17-7.89,24.2-14.35,3-2.8,6.21-5.76,8.25-9.28a129.8,129.8,0,0,0,14.91-39c4.11-20,8.46-39.91,10.43-60.3a115.29,115.29,0,0,0-2.45-38.55,26.69,26.69,0,0,0-2.31-6.17c-1.1-2.08-3-2.22-4.37-.27a40.05,40.05,0,0,0-3.44,7.09c-.51,1.2-.59,2.59-1.09,3.8-.68,1.65-1.88,2.91-3.84,2.45a3.48,3.48,0,0,1-2.78-3.66c0-3.33.1-6.67-.08-10a37.29,37.29,0,0,0-1-7.38c-.77-2.92-3.77-3.59-5.75-1.33a11.49,11.49,0,0,0-2.2,3.86c-1.19,3.46-2.18,7-3.23,10.48-.24.79-.17,1.86-.68,2.33a7.12,7.12,0,0,1-3.24,1.85c-1.5.27-2.48-.83-2.73-2.32-.4-2.45-.67-4.92-1.06-7.38a65.62,65.62,0,0,0-1.61-8.76c-1.25-4.06-4.23-4.64-7.06-1.53a14.53,14.53,0,0,0-3.67,8.57c-.25,2.47-.67,4.93-1.05,7.39-.31,2-1.3,3.45-3.36,3.86-1.23.25-2.51-.81-3.4-2.59a8.93,8.93,0,0,1-.6-1.69c-1.12-4.56-2.12-9.14-3.37-13.65a18.58,18.58,0,0,0-2.23-5c-1.59-2.49-4.63-2.77-6.2-.34s-3.15,5.3-3.49,8.12a56.72,56.72,0,0,0,.33,12.41c.61,5.94,2,11.82,2.3,17.76.64,11.12.81,22.27,1.14,33.4.14,4.76-1.26,9.22-3,13.53a9.62,9.62,0,0,1-7.35,6.14c-3.8.63-7.69.7-11.1-1.62a58.91,58.91,0,0,1-6.31-4.8c-3.08-2.78-3.29-2.61-5.81-.55a3,3,0,0,1-.42.27c-14.16,9-29.16,10.79-44.7,4.34-12.6-5.22-23.09-13.26-29.56-25.64-3.38-6.47-6.39-13.13-9.43-19.78-.94-2-1.85-3.64-4.27-4.39-4.59-1.43-9-3.34-13.56-5-13-4.68-25.87-9.55-38.94-13.9-9.62-3.21-19.71-4.43-29.73-5.93a173.48,173.48,0,0,0-28.33-1.69A138.14,138.14,0,0,0,228.39,170c-6.73.93-13.39,2.36-20,3.69a77.67,77.67,0,0,0-25.42,9.91c-7.51,4.59-14.92,9.45-21.34,15.57-4.8,4.59-10.14,8.87-14,14.21A134.5,134.5,0,0,0,130.2,245.8c-4.69,13-7.41,26.16-7.16,40,.08,4.66.07,9.33.29,14A50.45,50.45,0,0,0,126,314a20.19,20.19,0,0,0,3.9,6.73c3.88,4.36,7,5.17,10.83,2.86,3-1.79,3.95-4.71,4.61-7.9.94-4.55,2.08-9.05,3.16-13.56a5.38,5.38,0,0,1,.77-1.81c1.39-2,3.81-1.83,4.75.37a16.76,16.76,0,0,1,1,4.34,69.43,69.43,0,0,0,4.93,19.23,50.72,50.72,0,0,0,5.94,10.34c4,5.29,11.09,4.32,13.41-1.82a35.63,35.63,0,0,0,1.93-9.69c.33-4.14.1-8.32.17-12.48a6.45,6.45,0,0,1,.46-2.9c.42-.77,1.43-1.72,2.14-1.68a3.87,3.87,0,0,1,2.76,1.53c.67,1.07.68,2.54,1.07,3.81,1.47,4.92,2.91,9.85,4.53,14.73,1.3,3.9,4.75,7.66,7.66,7.63a2.83,2.83,0,0,0,2.59-2.3c.29-1.23,1.48-2.7,1.75-4.26a44.88,44.88,0,0,0,1-6.88c.16-6.32,0-12.65.15-19,.07-3.59,1.54-5.85,4-6.08,2.94-.26,3.64,2.2,4.67,4.32a32.3,32.3,0,0,0,3.58,6c1.45,1.87,3.29,1.7,4.39-.42a37,37,0,0,0,3.17-7.82c1.24-4.82,1.9-9.78,3.12-14.61,1.29-5.13,2.41-10.42,4.57-15.21,3.9-8.65,11.08-14.28,19.18-19,11.16-6.47,23.05-7.07,35.25-4.68,6.83,1.33,12.36,5.55,17.74,9.77a10.34,10.34,0,0,1,1.91,2.29,2.55,2.55,0,0,1-.22,3.6,2.69,2.69,0,0,1-3.61.52c-1.28-.76-2.46-1.7-3.72-2.5-2.95-1.87-5.82-3.88-8.89-5.51-4.82-2.57-5.7-2-5.56,3.37.23,8.94-1.12,17.56-5,25.69a140.61,140.61,0,0,1-16.36,26.73A45,45,0,0,1,246.52,321c-7.31,3.28-15,5.38-22.73,7.34a31.82,31.82,0,0,1-8.84,1.24c-3.4-.13-4.92,1.28-6.4,4.15-3.61,6.95-11.28,8-17.11,2.61C190,335,188.78,333.49,187.08,331.62ZM425,203.72h0c-.61,1.4-.86,2.17-1.25,2.87-1.25,2.21-2.46,2.46-4.33.9a5.34,5.34,0,0,1-1.66-1.83c-1.86-4.42-4-8.78-5.31-13.37-1.85-6.52-2.85-13.27-4.59-19.82a162.39,162.39,0,0,0-5.08-15.61A23.86,23.86,0,0,0,392.54,145c-3.41-2.12-5.94-1.84-9.1.55a35.7,35.7,0,0,0-8.38,9.77c-4.73,7.43-7,15.73-9,24.17-2,8.6-1.27,16.82,3.16,24.58a40.48,40.48,0,0,1,2.25,4.46c5,11.9,12.9,21.27,24.3,27.48,12.88,7,26,8.52,39.59,1.83a22.72,22.72,0,0,0,12.46-14.7,146.64,146.64,0,0,0,5.07-22.83c.51-4,.94-8.06-.23-12.3h0l-1.52,1.05a6.41,6.41,0,0,1-8.39-.5,3.11,3.11,0,0,1-.39-4,8.13,8.13,0,0,1,7-3.59c.33,0,.93-.58.91-.86a1.7,1.7,0,0,0-.81-1.09,3.73,3.73,0,0,0-1.42-.37c-2.33-.33-4.16.61-5.9,2.09a2.82,2.82,0,0,1-2,.53c-.21-.08-.56-.33-.56-.6a3.39,3.39,0,0,1,1-2c2-2.26,4.65-2.9,7.66-2.72,2.81.16,3.44-.6,2.72-3.1-1.53-5.26-3.08-10.53-4.91-15.69a26.5,26.5,0,0,0-3.44-6c-1.18-1.7-2.22-1.65-3.55,0a14.46,14.46,0,0,0-3.26,8.69A92.65,92.65,0,0,0,438.07,182a118.6,118.6,0,0,1,2.59,14.14c.48,5.43-1.42,6.52-6.48,4.47-.22-.09-.56.12-1,.23a33.49,33.49,0,0,1-.39,3.37c-.74,3.48-3,4.22-5.65,1.86C426.51,205.5,426,204.86,425,203.72ZM212,310.61h0c0,3.44,0,6.08,0,8.71.07,4.91,1.33,4.09,10.06,2.16A136.52,136.52,0,0,0,237,317.33c7.22-2.5,14.25-5.66,19.41-11.49A111.89,111.89,0,0,0,274,278.22a47.28,47.28,0,0,0,3.31-10.89c.91-4.7,1.25-9.51,1.8-14.28.35-2.91-.09-3.24-3.17-3.56-8.74-.91-16.35,2.24-23.48,6.73-8.14,5.14-14.22,11.91-16,21.82-.73,4.07-1.69,8.11-2.5,12.17-1.28,6.48-2.54,13-6,18.72a9.41,9.41,0,0,1-12,3.65C214.91,312.1,213.89,311.55,212,310.61ZM429.55,203.8l.37-.14a21.33,21.33,0,0,0,.31-2.3c0-2.66,0-5.33.12-8a2.22,2.22,0,0,1,.42-1,1.25,1.25,0,0,1,1.73-.36,2.5,2.5,0,0,1,.71.66c.89,1.38,1.52,2.94,2.43,4.32a2,2,0,0,0,1.66.42c.27,0,.61-.79.62-1.23a12.32,12.32,0,0,0-.41-1.93c-1.51-8.3-2.87-16.62-4.55-24.89-1.57-7.69-1-14.87,4-21.23,1.33-1.66,1-3-.51-4.27-6-4.87-12.11-9.53-20.11-10.24-8.46-.76-16.4,1.48-24,5.07-.48.22-.75.89-1.27,1.53h0c.86.5,1.43.8,2,1.14,6.19,3.91,11,8.92,13.7,15.93,4.26,11,6.77,22.53,8.94,34.09A53.08,53.08,0,0,0,420,203.51a1.43,1.43,0,0,0,1,.78,1.38,1.38,0,0,0,1-.89c.21-1,.07-2,.34-3,.51-1.75.32-3.86,2.27-5.23h0C426.09,198,426.63,201.24,429.55,203.8Zm21-18a1,1,0,0,0,0-1.33,2.23,2.23,0,0,0-.76-.62,4.61,4.61,0,0,0-5.22,1.85,2.51,2.51,0,0,0-.11.87,4.36,4.36,0,0,0,3.45,1.26A6.64,6.64,0,0,0,450.55,185.76Z" transform="translate(-48 -126.78)"/><path class="cls-1" d="M444.58,185.66" transform="translate(-48 -126.78)"/><path class="cls-1" d="M447.92,187.79" transform="translate(-48 -126.78)"/><path class="cls-1" d="M451.09,185.16" transform="translate(-48 -126.78)"/><path class="cls-1" d="M402.26,184.79c-8.38-4-13.14.84-18,6.62a.81.81,0,0,1-1.42-.39,2,2,0,0,1,0-1.24,22.78,22.78,0,0,1,8.07-8.66c3.48-2.19,10.73-1.57,13.75.88,4.24,3.44,3.77,8.33-1.11,10.82a12.94,12.94,0,0,1-7.66,1.69c-1.5-.2-3-.53-3.56-2.22a3.85,3.85,0,0,1,1-4.11c1.69-1.67,3.41-3.17,6-3.14A27.84,27.84,0,0,0,402.26,184.79Zm.8,5.43a.82.82,0,0,0-.21-1.36c-3.71-1.67-5.42-1.36-7.59,1a1.78,1.78,0,0,0-.51,1.32,1.47,1.47,0,0,0,1.09.76C398.37,192.19,400.83,192.11,403.06,190.22Z" transform="translate(-48 -126.78)"/></svg>