<svg id="Calque_1" data-name="Calque 1" xmlns="http://www.w3.org/2000/svg" viewBox="0 0 411.88 538.01"><defs><style>.cls-1{fill:#fff;}</style></defs><path class="cls-1" d="M193.38,364.39c-7.41,1.69-14.86,3.61-22.4,5.08-12.76,2.49-25.57,4.71-38.36,7a9.17,9.17,0,0,1-2.16.13c-1.84-.1-3-1-3-2.47a2.55,2.55,0,0,1,2.41-2.68c2.85-.47,5.71-.89,8.56-1.35,17.12-2.78,34.06-6.43,50.94-10.4.8-.19,1.58-.5,2.66-.86-.18-1.08-.29-2.12-.55-3.12a467,467,0,0,1-10.22-50.26,288.14,288.14,0,0,1-3-55.9c.81-15.69,2.75-31.23,8.56-46,1.72-4.37,3.68-8.64,5.66-12.9,3.45-7.39,9.76-8.73,17-7.75,4.17.56,6.58,3.54,6.47,7.85-.09,3.36-.8,6.69-1.22,10L212.31,220l.78.21c.47-.77.92-1.55,1.39-2.32,2.65-4.45,5.23-8.94,8-13.33,8.14-13,19.78-21.92,33.27-28.69,9.3-4.67,19.21-5.78,29.53-5.14s19.45,4.23,28.49,8.63l1.82.87a8.87,8.87,0,0,0,1.08-1.3c7.74-13.95,19.47-23,34.41-28.2a57.1,57.1,0,0,1,19.08-3.5c12.78.06,23.11,5.51,31.29,14.92s12.9,20.81,15.59,33a85.34,85.34,0,0,1,1.73,28.72c1,0,1.9,0,2.82,0,6.63-.32,11.29,2.84,14.5,8.37A32.19,32.19,0,0,1,440.23,247c.32,6.87.32,13.75.73,20.61.74,12.32,2.67,24.44,7.35,36,1.58,3.88,3.47,7.63,5.34,11.71,2.53-1.62,4.57-3,6.72-4.27a9.18,9.18,0,0,1,6.94-1.17c5.65,1.33,8,7.14,4.49,11.74a61.27,61.27,0,0,1-5.68,6.06c-1.1,1.1-2.38,2-3.63,3.09,3.56,7,2.54,13.26-1.46,19.16s-9.71,8.4-16.77,7.95c-3.79,5.9-9.26,6.76-15.91,5.09.74,1.54,1.31,2.7,1.88,3.87,5.74,11.82,11.45,23.68,14.43,36.56,4.25,18.43,1.84,36.19-6.43,53.12a31,31,0,0,1-14.32,14.34c-2.24,1.13-4.52,2.19-6.82,3.29,1,3.67,2.23,7.2,2.85,10.84.59,3.42.5,6.95.8,10.42a5.64,5.64,0,0,0,.82,2.93q10.92,13.5,22,26.86,26.46,31.88,53,63.69c7.27,8.72,14.09,17.72,19.25,27.93a25.69,25.69,0,0,1,2.61,14.34A10,10,0,0,1,511,640c-6.56,1.95-12.7.58-18.44-2.67-16.85-9.52-32.74-20.35-46.72-33.87-34.28-33.15-63.83-70-87-111.76-.46-.84-1-1.64-1.58-2.63-10.82,2.62-21.22.81-31.26-2.76,0,4.1-.09,8.27,0,12.44.1,4,.46,7.94.58,11.91a10.19,10.19,0,0,0,1.29,4.75c8.45,15.63,19.07,29.86,28.51,44.85,8.54,13.57,17,27.21,25.78,40.61,8.33,12.69,17.14,25.08,25.62,37.68,3.1,4.59,6,9.31,8.73,14.15a26.93,26.93,0,0,1,2.56,20.64,21.36,21.36,0,0,1-3.7,7.32c-3.24,4.18-7.42,5.61-12.8,3.84a44.87,44.87,0,0,1-13.74-7c-17-13.06-32.32-27.88-46.73-43.67-41.52-45.48-74.79-96.55-102.3-151.48a653.11,653.11,0,0,1-45.17-115.22c-.2-.7-.43-1.38-.69-2.06A3.33,3.33,0,0,0,193.38,364.39Zm70.64,5a41.38,41.38,0,0,0,3.37,5.66c2.29,2.79,5,5.22,7.36,8,5.41,6.34,4.09,15.43-2.79,19.38a16,16,0,0,1-11.13,2.11c-2-.37-4-1.06-6-1.45s-4.07-1-6-.76c-4.52.53-7.12,3.8-7.65,9.16a45.65,45.65,0,0,0,1.06,14.73,274.26,274.26,0,0,0,11,34.76,182.49,182.49,0,0,0,14.56,31,185.74,185.74,0,0,0,22.61,30.43,42.3,42.3,0,0,0,14.89,10.65c5.72,2.34,11,.39,13.5-5.23a24.59,24.59,0,0,0,2-7.63c1.07-11.69-.36-23.35-.87-35a5.82,5.82,0,0,0-2.89-4.67,53.85,53.85,0,0,1-12.66-12.81,21.1,21.1,0,0,1-1.89-3.07c-.92-1.91-.62-3.37.75-4.12,1.6-.87,2.8-.1,3.76,1.12.82,1,1.5,2.19,2.29,3.25,10,13.33,23.15,20.49,40.1,19.56,10.83-.59,19.08-5.39,23.79-15.51,3.37-7.25,6.17-14.71,7-22.69.9-8.62,1.49-17.28,2-25.93a43.15,43.15,0,0,0-.3-9.37,151.46,151.46,0,0,0-8-29.59c-4.68-12.39-9-24.94-14.84-36.85-.64-1.29-1.14-2.66-1.68-4a2.52,2.52,0,0,1,1.12-3.42c1.25-.69,2.4-.05,3.23.89a10.93,10.93,0,0,1,1.75,2.71c2.55,5.72,5.19,11.4,7.5,17.22,5.54,14,11.22,27.95,14.62,42.68,1.5,6.46,2.93,12.93,2.45,19.65-.29,4.09-.28,8.21-.7,12.28-.69,6.58-1.16,13.24-2.56,19.69-2.39,11-6.07,21.55-14.3,30.11,4.15,6.51,8.06,13,12.37,19.25a104.49,104.49,0,0,0,8.61,10.21,9.67,9.67,0,0,0,9.93,2.85,67.86,67.86,0,0,0,7.21-2.3,7.42,7.42,0,0,0,4.81-5.47,48.58,48.58,0,0,0,1.15-20.42c-.57-3.4-1.29-6.85-3.28-9.95-.65.08-1.23.12-1.81.22-4.5.77-9,1.74-13.51,2.27a39.78,39.78,0,0,1-7.93-.22c-1.87-.16-3-1.32-2.8-2.67.21-1.75,1.45-2.38,3-2.46a19.82,19.82,0,0,1,2.18,0c11.07.72,21.15-2.68,30.87-7.5a26.43,26.43,0,0,0,12.45-12.66c8.05-17.14,9.92-34.9,4.55-53.15-4-13.45-10-26.07-16.8-38.31-3.16-5.69-6.42-11.32-9.44-17.09A183.26,183.26,0,0,1,395,297.49a44,44,0,0,1-.8-7.16c0-.65.73-1.82,1.25-1.88a3.48,3.48,0,0,1,2.41.95,5.13,5.13,0,0,1,1.1,2.24c.53,1.72,1,3.47,1.42,5.22,2.8,11,5.58,22,10.32,32.31.52,1.16,1.1,2.29,2,4.18.85-4.17,1.48-7.69,4.8-9.63s6.65-1,9.78.94a9.9,9.9,0,0,1,8.35-5.29c3.73-.35,6.23,2,9,3.91l4.83-4.14c0-.53,0-.68-.05-.77C440.84,304,437,288.14,435.82,271.6c-.49-6.72-.57-13.48-.85-20.22-.24-5.45-.78-10.82-3.39-15.77a11.84,11.84,0,0,0-4.92-5.13c-2.49-1.33-5.08-1.17-7.73-.53-2.39.58-2.39,2.78-3.18,4.45-.15.32-.23.69-.37,1-6.47,14.91-17.33,23.84-33.87,25.67-7.44.82-14.66,0-21.9-1.26-7.56-1.32-14.8-3.75-20.91-8.46a113,113,0,0,1-22-22.35c-6.59-8.9-8.73-19-6.92-29.78.76-4.59,2.14-9.07,3.33-14-3.68-1.65-7.54-3.58-11.54-5.14a55.36,55.36,0,0,0-33.36-2.65c-14.33,3.4-26,11.55-35.41,22.55-9.89,11.54-16.7,25-22,39.24-5.06,13.63-7.83,27.79-9.72,42.16-2.16,16.34-1.45,32.43,3.17,48.34,4,13.72,9.9,26.4,19.41,37.17a41.26,41.26,0,0,0,7.57,6.64c3.82,2.6,6.85,2.15,10-1.25a10.55,10.55,0,0,0,2.77-4.93,47.21,47.21,0,0,0,.48-9.66c-.1-3,.21-4.48,1.93-4.78,2.33-.41,3,1.45,3.89,3a15.48,15.48,0,0,0,1.48,2.48,24.16,24.16,0,0,0,3.11,3.5c3.82,3.3,8,2.6,10.67-1.68,1.82-2.94,1.92-6.15,1.47-9.45-.11-.83-.53-1.75-.3-2.46a4.09,4.09,0,0,1,1.79-2.43,3.85,3.85,0,0,1,2.88.7c.74.49,1,1.63,1.72,2.28a38,38,0,0,0,5.68,4.89c2.18,1.34,4.92,2,7.19.35s2.34-4.41,1.85-6.95a56.8,56.8,0,0,0-2-7.29c-.47-1.42-.41-2.67.75-3.6s2.46-.65,3.69.11a27.94,27.94,0,0,0,4.36,2.51c3,1.16,5.46.09,6.9-2.77a8.91,8.91,0,0,0,.83-6.67,76.63,76.63,0,0,0-3.85-10.84c-2.34-4.89-5.18-9.53-7.76-14.29a36.15,36.15,0,0,1-4.43-12.55,21.79,21.79,0,0,1,0-6.09,3,3,0,0,1,2.23-1.85,3.43,3.43,0,0,1,2.37,1.69,7.3,7.3,0,0,1,.65,3.16,31.49,31.49,0,0,0,4.15,13c2.12,3.92,4.31,7.8,6.49,11.69.46.81,1,1.57,1.61,2.49,4.1-1.94,8-3.83,11.93-5.64a36.23,36.23,0,0,1,5.35-2.15c3.13-.89,6.91.77,8.78,3.63a6.72,6.72,0,0,1-.54,8.64,27.85,27.85,0,0,1-6.14,5.5c-4,2.44-8.25,4.48-12.47,6.52-1.72.83-2.79,1.65-3.27,3.75-1.05,4.67-5.21,9.57-11.95,8.76a13.76,13.76,0,0,0-2.17.08c0,2.16.13,4.08,0,6-.51,6.62-5.28,10.53-11.85,9.52a31.07,31.07,0,0,1-6.1-2.11,26.71,26.71,0,0,1-2.48-1.29C270.25,364.21,270.25,364.21,264,369.42Zm-65-6.7a6.68,6.68,0,0,0,0,1.3c.63,2.33,1.24,4.66,1.94,7A694,694,0,0,0,328,609.71a425,425,0,0,0,57.75,58.71c5.29,4.4,10.72,8.63,17.44,10.7,4.42,1.37,7.05.38,9.27-3.71a15.57,15.57,0,0,0,1.61-4.76,22.53,22.53,0,0,0-2.66-15.7c-2.55-4.37-5.19-8.7-8-12.89-8.84-13.08-18-26-26.63-39.17-8.27-12.58-16.1-25.46-24.19-38.16S336.17,539.18,328,526.42c-.51-.79-1.11-1.51-1.82-2.47-.9,2.3-1.54,4.37-2.48,6.29-3.93,8-12.07,11.16-20.31,7.81a42.88,42.88,0,0,1-5.15-2.61,55.32,55.32,0,0,1-14.2-12.2,205.34,205.34,0,0,1-21.89-30.52,147.31,147.31,0,0,1-11.29-23c-1.08-2.94-2-6-3.25-8.81-4.78-10.73-7.9-22-10.57-33.37a45.74,45.74,0,0,1-1-17.94c1.45-8.94,8-13.93,16.95-12.72,1.42.19,2.81.66,4.23.94a41.4,41.4,0,0,0,6.73,1.16c3.3.09,6.17-1.07,7.72-4.3s.75-5.85-1.47-8.32c-.64-.71-1.33-1.39-2-2.09-3.75-3.92-7.66-7.72-9.06-13.27a2.26,2.26,0,0,0-1.08-1.31c-2.57-1.2-5.19-2.31-7.91-3.5-.22.78-.54,1.77-.8,2.78a16.09,16.09,0,0,1-6.55,9.24c-4.09,2.95-8.5,3.46-12.89,1a28.73,28.73,0,0,1-7.2-5.37c-3.73-4.07-7-8.55-10.47-12.87-.65-.82-1.24-1.69-1.85-2.52Zm163.5,124.66a3,3,0,0,0,.13.89c.44.86.92,1.69,1.39,2.53,21.94,38.94,49.44,73.56,81.19,104.92A225,225,0,0,0,490,629.87a78.56,78.56,0,0,0,9.76,4.64,13.69,13.69,0,0,0,9.9.34,4.75,4.75,0,0,0,3.57-4.13c.33-3.74.27-7.37-1.59-10.89a117.51,117.51,0,0,0-13.15-20.3c-8.43-10.24-17-20.32-25.49-30.55q-24.75-30-49.39-60.06c-1.12-1.37-2.19-2.77-3.28-4.17-.3.26-.42.33-.47.43a3.89,3.89,0,0,0-.44,1c-1.06,6.89-5.36,10.62-11.78,12.69-10.76,3.48-15.84,2.2-23.41-6.34-6.51-7.36-11.61-15.67-16.43-24.18-.53-.91-1.08-1.82-1.64-2.77-1.1.49-2,.85-2.85,1.27A4.17,4.17,0,0,0,362.56,487.38Zm-35.8-313.91c-.76.92-1.26,1.44-1.66,2-6.9,10.1-11.11,21-10.34,33.5a27.05,27.05,0,0,0,3.73,13,45.24,45.24,0,0,0,4.68,6.85c4.64,5,9.47,9.94,14.33,14.78A38.81,38.81,0,0,0,355,253.3c8.87,2.44,17.9,3.79,27.14,2.43,8.36-1.24,15.8-4.3,21.39-10.9a44.42,44.42,0,0,0,9.85-21.4c1.32-7.48.65-14.9-.48-22.3A92.45,92.45,0,0,0,408,183.18c-.5,1.52-.84,2.39-1.07,3.29a165.36,165.36,0,0,1-10.17,28.15,50.8,50.8,0,0,1-3.62,6.65c-3.5,5.27-5.95,5.79-11,2.87-1.81,1-3.44,2.48-5.11,2.53-1.82.05-3.68-1.25-5.73-2-.27.39-.66,1-1.06,1.54-3.2,4.54-6.72,4.69-10.17.25a40.1,40.1,0,0,1-3.82-6.11q-4.5-8.66-8.77-17.42C342.21,192.07,335.12,182.56,326.76,173.47Zm2-2.36a128.29,128.29,0,0,1,23.16,33.81c2.27,4.91,4.76,9.73,7.32,14.5a32.41,32.41,0,0,0,4.1,5.9c1.34,1.54,2.62,1.32,3.91-.28a10.4,10.4,0,0,0,1.14-1.83c2.16-4.16,2.16-4.17,5.93-1.23,2.4,1.87,3.18,1.72,4.75-.93s2.12-2.86,4.49-.66c.27.25.5.53.77.77,2,1.66,2.88,1.76,4.47-.38a49,49,0,0,0,4.88-8,140.27,140.27,0,0,0,8.94-24.74c1-3.77,3.4-7.68,2.11-11.41s-4.25-6.93-6.48-10.36a6.76,6.76,0,0,0-.67-.85c-7.34-7.94-16.2-13-27.2-12.92-13.72.14-25.79,5.24-36.46,13.71C332,167.71,330.42,169.5,328.73,171.11Zm-120.79,183c-.68-1.47-1.23-2.64-1.77-3.82-7.9-17.09-12.34-34.95-11.73-53.87a191.41,191.41,0,0,1,8.32-49.77c2.13-7,3-14.09,3.63-21.29.89-9.59,1.24-19.25,3.45-28.69a29.15,29.15,0,0,0,.62-4.66c.16-2.66-.61-3.42-3.22-3.67-4.86-.46-8.21,1.19-10.42,5.86a131.68,131.68,0,0,0-10.74,32.1c-3.71,19.84-3.59,39.82-1.89,59.82a385,385,0,0,0,9.19,55.93c1.18,5,2.47,10,3.81,15.4Zm231.89-27.09c-1.23-2.34-3.33-2.17-5.36-1.66s-2.34,2.51-2.5,4.35a5.86,5.86,0,0,0,0,1.45A34.5,34.5,0,0,0,441.38,350c2.55,2.6,5.73,2.93,9,1.63,5.24-2,7.8-6.2,8.66-11.54a4.86,4.86,0,0,0-1.08-4.34c-2.59,1.84-4.95,3.71-7.5,5.29-3.68,2.3-7.15,1.52-9.81-1.95A10.29,10.29,0,0,1,439.83,327.06ZM439,355.44c-6-5.23-9.25-11.92-11.48-19.09-.85-2.7-1.78-5-4-6.77s-3.67-1.55-4.58,1a8.41,8.41,0,0,0-.42,2.83c.07,8.59,3.36,15.88,9.19,22.05a11.31,11.31,0,0,0,3.92,2.47C434.33,359.1,436.57,358.3,439,355.44Zm7.29-18.19c8.39-5.22,14.6-11.95,20.87-18.56.46-.49.71-1.92.4-2.23a3.64,3.64,0,0,0-2.71-1.16,10.75,10.75,0,0,0-4.15,2c-5.34,4.3-10.57,8.74-15.87,13.09a2.51,2.51,0,0,0-.82,3.21A33.94,33.94,0,0,0,446.28,337.25ZM308,327.73c4.64-2.53,8.89-4.76,13.05-7.15a13.91,13.91,0,0,0,3.57-3A2.83,2.83,0,0,0,325,315a3.39,3.39,0,0,0-2.32-1.26,4.87,4.87,0,0,0-2.38.68c-4.69,2.13-9.36,4.3-14.17,6.52a9.11,9.11,0,0,0,.2,1.33C306.78,323.91,307.29,325.49,308,327.73Z" transform="translate(-106.67 -147.21)"/><path class="cls-1" d="M113.93,371.17a40.06,40.06,0,0,1,1.25-4.83,10.53,10.53,0,0,1,12.62-6.42c2.49.73,4.75,3.19,4.86,5.69a3.74,3.74,0,0,1-1.12,2.72c-.4.34-1.69-.24-2.51-.57-.41-.16-.68-.67-1-1-2.54-2.56-6-2.07-7.65,1.13a7.32,7.32,0,0,0-.71,2c-.8,4.3,2.73,10.83,6.76,12.61,2.9,1.28,4.16.77,5.24-2.15.08-.22.08-.48.16-.7.47-1.39,1.35-2.42,2.9-2.12s2.22,1.61,2.2,3.25a8.17,8.17,0,0,1-8.94,7.85,13.84,13.84,0,0,1-10-6.34,15,15,0,0,1-1.91-3.46c-.62-1.77-1.84-2.05-3.4-1.87a28.24,28.24,0,0,1-2.86.35,2.82,2.82,0,0,1-3.1-2.4,2.69,2.69,0,0,1,2.2-2.91C110.47,371.61,112.14,371.45,113.93,371.17Z" transform="translate(-106.67 -147.21)"/><path class="cls-1" d="M350.48,221.36c-.13,3.95-2.42,6.61-5.68,6.6a6.12,6.12,0,0,1-5.89-6.43,6.05,6.05,0,0,1,6-5.89C348.44,215.83,350.59,218,350.48,221.36Zm-5-2.42a3,3,0,0,0-3.16,2.71,2.89,2.89,0,0,0,2.86,3,3,3,0,0,0,2.92-3A2.5,2.5,0,0,0,345.52,218.94Z" transform="translate(-106.67 -147.21)"/><path class="cls-1" d="M404.17,215a4.94,4.94,0,0,1,5.33,4.68,5.89,5.89,0,0,1-5.28,5.8,4.66,4.66,0,0,1-4.76-4.78C399.37,217.48,401.41,215,404.17,215Zm1.55,6.52a1.82,1.82,0,0,0-.73-3.2l-.08,0c-1.47-.33-2.22.68-2.48,2-.2,1.06.94,2.39,1.9,2A3.83,3.83,0,0,0,405.72,221.47Z" transform="translate(-106.67 -147.21)"/></svg>